<?xml version="1.0" encoding="UTF-8" standalone="no"?>
<!-- Created with Inkscape (http://www.inkscape.org/) -->

<svg
   xmlns:dc="http://purl.org/dc/elements/1.1/"
   xmlns:cc="http://creativecommons.org/ns#"
   xmlns:rdf="http://www.w3.org/1999/02/22-rdf-syntax-ns#"
   xmlns:svg="http://www.w3.org/2000/svg"
   xmlns="http://www.w3.org/2000/svg"
   xmlns:xlink="http://www.w3.org/1999/xlink"
   xmlns:sodipodi="http://sodipodi.sourceforge.net/DTD/sodipodi-0.dtd"
   xmlns:inkscape="http://www.inkscape.org/namespaces/inkscape"
   width="500"
   height="500"
   viewBox="0 0 500.00001 500.00001"
   id="svg2"
   version="1.1"
   inkscape:version="0.91 r13725"
   sodipodi:docname="actualpenguin.svg">
  <defs
     id="defs4" />
  <sodipodi:namedview
     id="base"
     pagecolor="#ffffff"
     bordercolor="#666666"
     borderopacity="1.0"
     inkscape:pageopacity="0.0"
     inkscape:pageshadow="2"
     inkscape:zoom="0.98994949"
     inkscape:cx="44.169789"
     inkscape:cy="239.8722"
     inkscape:document-units="px"
     inkscape:current-layer="layer2"
     showgrid="false"
     units="px"
     inkscape:window-width="1366"
     inkscape:window-height="745"
     inkscape:window-x="-8"
     inkscape:window-y="-8"
     inkscape:window-maximized="1" />
  <metadata
     id="metadata7">
    <rdf:RDF>
      <cc:Work
         rdf:about="">
        <dc:format>image/svg+xml</dc:format>
        <dc:type
           rdf:resource="http://purl.org/dc/dcmitype/StillImage" />
        <dc:title />
      </cc:Work>
    </rdf:RDF>
  </metadata>
  <g
     inkscape:label="Layer 1"
     inkscape:groupmode="layer"
     id="layer1"
     transform="translate(0,-552.36216)"
     style="display:inline">
    <image
       sodipodi:absref="C:\Users\BoxMaker\Desktop\actualpenguin.jpg"
       y="544.31036"
       x="-3.2689705"
       id="image4144"
       xlink:href="file:///C:/Users/BoxMaker/Desktop/actualpenguin.jpg"
       preserveAspectRatio="none"
       height="514.53906"
       width="397.46698" />
  </g>
  <g
     inkscape:groupmode="layer"
     id="layer2"
     inkscape:label="Trace">
    <path
       style="fill:none;fill-rule:evenodd;stroke:#000000;stroke-width:1px;stroke-linecap:butt;stroke-linejoin:miter;stroke-opacity:1"
       d="m 309.10668,39.370439 c -26.26397,16.162441 -43.43656,11.111678 -37.37565,48.487322 6.06092,37.375649 17.1726,95.964489 35.35534,105.055869 22.22336,22.22335 60.60916,70.71067 22.22336,129.29952 -13.13198,-39.39595 -25.25381,-64.64976 -25.25381,-64.64976 0,0 -30.83265,177.56571 -50.50763,182.83761 18.18274,8.08122 42.42641,4.04061 44.44671,24.24366 -26.26397,4.04061 -72.73098,-2.0203 -72.73098,-2.0203 0,0 -10.10153,-21.21321 -32.32488,-20.20306 -22.22336,1.01016 -26.26397,8.08123 20.20305,21.21321 13.13198,6.06091 16.16244,9.09137 11.11168,19.1929 -3.03046,0 -13.13199,-8.08122 -27.27412,1.01015 -13.13199,-8.08122 -19.1929,-2.02031 -19.1929,-2.02031 -6.06092,-12.12183 -42.42641,-9.09137 -39.39595,-31.31472 -23.23351,11.11167 -61.619307,10.10152 -61.619307,10.10152 0,0 61.619307,-39.39595 47.477167,-134.35029 -5.7498,-38.60581 8.08122,-85.86296 8.08122,-85.86296 0,0 -69.700522,36.36549 -76.77159,78.79189 -16.162441,-40.4061 -3.030458,-59.599 8.08122,-76.77159 11.111678,-17.17259 112.89914,-41.31718 120.20815,-188.898525 3.56271,-71.937101 80.81221,-26.263966 80.81221,-26.263966 0,0 35.35534,-3.030458 44.44671,12.12183 z"
       id="path4148"
       inkscape:connector-curvature="0"
       sodipodi:nodetypes="csccccccsccccccsccsscc" />
    <path
       style="display:inline;fill:none;fill-rule:evenodd;stroke:#000000;stroke-width:1px;stroke-linecap:butt;stroke-linejoin:miter;stroke-opacity:1"
       d="m 255.65148,33.332961 -16.16244,-1.01015 -14.14213,6.06091"
       id="path4136"
       inkscape:connector-curvature="0" />
  </g>
</svg>
