<?xml version="1.0" encoding="UTF-8" standalone="no"?>
<!-- Created with Inkscape (http://www.inkscape.org/) -->

<svg
   xmlns:dc="http://purl.org/dc/elements/1.1/"
   xmlns:cc="http://creativecommons.org/ns#"
   xmlns:rdf="http://www.w3.org/1999/02/22-rdf-syntax-ns#"
   xmlns:svg="http://www.w3.org/2000/svg"
   xmlns="http://www.w3.org/2000/svg"
   xmlns:sodipodi="http://sodipodi.sourceforge.net/DTD/sodipodi-0.dtd"
   xmlns:inkscape="http://www.inkscape.org/namespaces/inkscape"
   width="500"
   height="500"
   viewBox="0 0 500.00001 500.00001"
   id="svg4146"
   version="1.1"
   inkscape:version="0.91 r13725"
   sodipodi:docname="demoimageCrease.svg">
  <defs
     id="defs4148">
    <inkscape:path-effect
       effect="skeletal"
       id="path-effect4744"
       is_visible="true"
       pattern="m 0,557.36216 c 0,-2.76 2.24,-5 5,-5 2.76,0 5,2.24 5,5 0,2.76 -2.24,5 -5,5 -2.76,0 -5,-2.24 -5,-5 z"
       copytype="single_stretched"
       prop_scale="1"
       scale_y_rel="false"
       spacing="0"
       normal_offset="0"
       tang_offset="0"
       prop_units="false"
       vertical_pattern="false"
       fuse_tolerance="0" />
    <inkscape:path-effect
       effect="skeletal"
       id="path-effect4740"
       is_visible="true"
       pattern="m 0,557.36216 c 0,-2.76 2.24,-5 5,-5 2.76,0 5,2.24 5,5 0,2.76 -2.24,5 -5,5 -2.76,0 -5,-2.24 -5,-5 z"
       copytype="single_stretched"
       prop_scale="1"
       scale_y_rel="false"
       spacing="0"
       normal_offset="0"
       tang_offset="0"
       prop_units="false"
       vertical_pattern="false"
       fuse_tolerance="0" />
    <inkscape:path-effect
       effect="skeletal"
       id="path-effect4736"
       is_visible="true"
       pattern="m 0,557.36216 c 0,-2.76 2.24,-5 5,-5 2.76,0 5,2.24 5,5 0,2.76 -2.24,5 -5,5 -2.76,0 -5,-2.24 -5,-5 z"
       copytype="single_stretched"
       prop_scale="1"
       scale_y_rel="false"
       spacing="0"
       normal_offset="0"
       tang_offset="0"
       prop_units="false"
       vertical_pattern="false"
       fuse_tolerance="0" />
    <inkscape:path-effect
       effect="skeletal"
       id="path-effect4732"
       is_visible="true"
       pattern="m 0,557.36216 c 0,-2.76 2.24,-5 5,-5 2.76,0 5,2.24 5,5 0,2.76 -2.24,5 -5,5 -2.76,0 -5,-2.24 -5,-5 z"
       copytype="single_stretched"
       prop_scale="1"
       scale_y_rel="false"
       spacing="0"
       normal_offset="0"
       tang_offset="0"
       prop_units="false"
       vertical_pattern="false"
       fuse_tolerance="0" />
    <inkscape:path-effect
       effect="skeletal"
       id="path-effect4728"
       is_visible="true"
       pattern="m 0,557.36216 c 0,-2.76 2.24,-5 5,-5 2.76,0 5,2.24 5,5 0,2.76 -2.24,5 -5,5 -2.76,0 -5,-2.24 -5,-5 z"
       copytype="single_stretched"
       prop_scale="1"
       scale_y_rel="false"
       spacing="0"
       normal_offset="0"
       tang_offset="0"
       prop_units="false"
       vertical_pattern="false"
       fuse_tolerance="0" />
    <inkscape:path-effect
       effect="skeletal"
       id="path-effect4724"
       is_visible="true"
       pattern="m 0,557.36216 c 0,-2.76 2.24,-5 5,-5 2.76,0 5,2.24 5,5 0,2.76 -2.24,5 -5,5 -2.76,0 -5,-2.24 -5,-5 z"
       copytype="single_stretched"
       prop_scale="1"
       scale_y_rel="false"
       spacing="0"
       normal_offset="0"
       tang_offset="0"
       prop_units="false"
       vertical_pattern="false"
       fuse_tolerance="0" />
    <inkscape:path-effect
       effect="skeletal"
       id="path-effect4720"
       is_visible="true"
       pattern="m 0,557.36216 c 0,-2.76 2.24,-5 5,-5 2.76,0 5,2.24 5,5 0,2.76 -2.24,5 -5,5 -2.76,0 -5,-2.24 -5,-5 z"
       copytype="single_stretched"
       prop_scale="1"
       scale_y_rel="false"
       spacing="0"
       normal_offset="0"
       tang_offset="0"
       prop_units="false"
       vertical_pattern="false"
       fuse_tolerance="0" />
  </defs>
  <sodipodi:namedview
     id="base"
     pagecolor="#ffffff"
     bordercolor="#666666"
     borderopacity="1.0"
     inkscape:pageopacity="0.0"
     inkscape:pageshadow="2"
     inkscape:zoom="0.98994949"
     inkscape:cx="190.5597"
     inkscape:cy="263.02146"
     inkscape:document-units="px"
     inkscape:current-layer="layer1"
     showgrid="false"
     units="px"
     inkscape:window-width="1366"
     inkscape:window-height="745"
     inkscape:window-x="-8"
     inkscape:window-y="-8"
     inkscape:window-maximized="1" />
  <metadata
     id="metadata4151">
    <rdf:RDF>
      <cc:Work
         rdf:about="">
        <dc:format>image/svg+xml</dc:format>
        <dc:type
           rdf:resource="http://purl.org/dc/dcmitype/StillImage" />
        <dc:title></dc:title>
      </cc:Work>
    </rdf:RDF>
  </metadata>
  <g
     inkscape:label="Layer 1"
     inkscape:groupmode="layer"
     id="layer1"
     transform="translate(0,-552.36216)">
    <path
       style="fill:#000000;fill-rule:evenodd;stroke:none;stroke-width:1px;stroke-linecap:butt;stroke-linejoin:miter;stroke-opacity:1"
       d="m 116.16754,591.7326 c -0.15459,0.85088 -5.012,0.51458 -13.57527,0.18161 -7.890457,-0.30682 -21.43038,-0.73631 -34.99554,2.10125 -9.328094,1.9761 -20.139197,5.80322 -28.15739,13.30255 -6.000193,5.47833 -10.56947,13.1589 -12.863713,21.90078 -1.479385,5.58738 -2.047429,11.54093 -1.869094,17.709 0.09689,3.35119 0.412073,6.69293 0.890004,9.97489 1.549273,10.45384 4.861286,20.32442 9.001594,29.18639 4.714714,10.0539 10.405592,18.62913 16.621909,25.7442 7.261743,8.27386 14.497164,13.91932 21.663103,17.64014 0,0 6e-6,1e-5 6e-6,1e-5 4.425643,2.30629 8.478601,3.70955 12.0555,4.56878 8.076488,1.94569 12.877397,1.12971 13.046148,2.14221 0.0792,0.4752 -4.505465,2.97523 -13.728811,2.21499 -4.033294,-0.33427 -8.758084,-1.3272 -13.901155,-3.39827 0,0 -6e-6,0 -6e-6,0 -8.262368,-3.33822 -16.894086,-9.01544 -25.176997,-17.59412 -7.144308,-7.36865 -13.719261,-16.44617 -19.089956,-27.19131 -4.749398,-9.47081 -8.533539,-20.207 -10.345325,-31.81158 -0.577348,-3.64383 -0.945935,-7.39272 -1.047081,-11.19935 -0.186118,-7.00456 0.540906,-13.91475 2.322729,-20.53847 2.856537,-10.54442 8.64448,-19.6946 16.229392,-26.30589 10.258609,-8.76414 22.617741,-12.60216 33.010793,-14.05033 15.117262,-2.13712 28.739169,-0.37202 36.84924,1.2117 8.60677,1.68072 13.18673,3.51286 13.05992,4.21082 z"
       id="path4718" />
    <path
       style="fill:#000000;fill-rule:evenodd;stroke:none;stroke-width:1px;stroke-linecap:butt;stroke-linejoin:miter;stroke-opacity:1"
       d="m 136.37059,678.60572 c 1.37283,-0.0457 4.66825,13.90881 3.84541,35.38917 -0.13024,3.42049 -0.39427,7.15572 -0.96404,11.00488 -0.32456,2.26906 -0.79858,4.77594 -1.65649,7.37335 -0.22678,1.17256 -1.01674,2.97384 -2.83531,5.01859 -0.48743,0.71578 -1.72272,1.3477 -3.70984,1.76368 -1.99484,-0.003 -3.49284,-0.52783 -4.42456,-1.50391 -1.0128,-1.03891 -1.59396,-1.9177 -1.78722,-2.55714 -0.38152,-0.91408 -0.61571,-1.7281 -0.73933,-2.41622 0,0 0,-1e-5 0,-1e-5 -0.36986,-1.93667 -0.4399,-3.75222 -0.34852,-5.39802 0.13342,-2.84756 0.60207,-5.65888 1.35719,-8.39665 0.52252,-1.89444 1.17222,-3.71749 1.91621,-5.45585 2.52268,-5.96226 6.18518,-11.08825 10.42661,-15.19392 6.15032,-5.9211 13.23183,-9.5618 19.64381,-11.64213 18.24249,-5.89614 29.78371,-1.52146 29.78371,-0.91475 0,2.56371 -11.55791,1.48185 -26.9284,8.4046 -5.32334,2.3923 -11.07615,5.89272 -15.73396,10.8643 -3.2466,3.44139 -6.05852,7.61673 -7.98612,12.32219 -0.56803,1.40673 -1.07114,2.84387 -1.47823,4.29509 -0.58856,2.09813 -0.96134,4.17178 -1.06531,6.20078 -0.0473,1.2033 -0.0631,2.22028 0.10102,3.0328 0,0 0,0 0,0 0.0649,0.28272 0.0798,0.42795 0.086,0.41615 0.0827,0.003 -0.15462,-0.24621 -0.65254,-0.81715 -0.55697,-0.63545 -1.55625,-0.93555 -3.04881,-0.98409 -1.39181,0.36233 -2.10339,0.63115 -2.16128,0.93557 -0.0913,0.38201 -0.0538,-0.15056 0.50713,-1.19251 0.67322,-1.7216 1.12616,-3.7152 1.55794,-5.76276 0.69611,-3.37711 1.17698,-6.83956 1.57621,-10.0784 2.51993,-20.49359 2.45104,-34.63209 4.71873,-34.70764 z"
       id="path4722" />
    <path
       style="fill:#000000;fill-rule:evenodd;stroke:none;stroke-width:1px;stroke-linecap:butt;stroke-linejoin:miter;stroke-opacity:1"
       d="m 206.07112,718.00167 c 0.18886,-0.82512 3.01637,-0.66631 7.65562,-1.35531 5.95191,-0.88394 9.98041,-2.24506 19.56385,-5.40193 0,0 1e-5,0 1e-5,0 1.51343,-0.57273 2.97085,-1.4146 3.9015,-2.54524 0.83015,-0.92023 1.44482,-2.17909 1.83531,-3.58212 0.85218,-2.8648 0.46587,-6.31708 -0.57355,-9.96965 -1.05081,-3.02094 -2.29834,-5.96932 -4.2572,-7.48697 -0.66125,-0.384 -0.93559,-0.71405 -0.73611,-0.50889 0.54374,-0.15783 0.55035,0.005 0.3849,0.0356 -0.82455,0.84443 -1.60837,1.72514 -2.32626,2.63884 -1.25665,1.59941 -2.28224,3.26286 -2.99074,4.98528 -1.00647,2.36866 -1.48739,4.93517 -1.44108,7.40921 -0.0342,5.49705 2.78534,11.07347 5.88442,15.63097 4.24502,6.07823 9.63467,10.77645 14.26044,14.1953 0,0 1e-5,0 1e-5,0 9.48227,6.91057 16.60926,9.04847 16.41757,10.19858 -0.18588,1.11526 -8.20838,1.76665 -19.94349,-4.56694 0,0 0,0 0,0 -5.60144,-2.98221 -12.17386,-7.61887 -17.76327,-14.48972 -4.25906,-5.13044 -8.08609,-12.19195 -8.61441,-20.62321 -0.17791,-3.86764 0.47301,-7.83104 2.00242,-11.57183 1.10642,-2.65003 2.56749,-5.10003 4.29574,-7.32599 0.98765,-1.27208 2.04859,-2.45299 3.15731,-3.54183 1.71415,-1.85532 4.33642,-2.94828 7.49281,-2.88743 2.95005,0.43599 5.13261,1.62954 6.49751,3.05214 3.87256,3.68866 5.89807,8.1957 6.85134,12.26295 1.40501,4.9906 1.45654,10.31347 -0.16974,15.24368 -0.87921,2.59035 -2.36099,4.92561 -4.31197,6.80815 -2.3684,2.1935 -5.09808,3.48322 -7.72388,4.09269 0,0 0,0 0,0 -9.23845,2.25002 -15.88112,2.95997 -21.6664,2.26017 -5.27874,-0.63853 -7.84033,-2.26766 -7.68266,-2.95649 z"
       id="path4726" />
    <path
       style="fill:#000000;fill-rule:evenodd;stroke:none;stroke-width:1px;stroke-linecap:butt;stroke-linejoin:miter;stroke-opacity:1"
       d="m 284.86302,702.84938 c 0.0552,0.46658 -0.6763,0.95854 -1.99432,1.62988 -1.10016,0.56036 -3.38437,1.55727 -4.52277,2.9625 -0.34893,0.43298 -0.63949,0.90167 -0.66862,1.29534 -0.061,0.31299 -0.0166,0.71377 0.0804,1.14597 0.16439,1.14209 1.02972,2.26092 2.19579,3.90815 1.34847,1.72333 3.01707,3.31833 5.06999,5.08721 3.67161,3.1207 8.03569,6.2153 13.00803,8.646 1.66724,0.76387 3.09573,1.46951 4.22708,1.59294 0.38961,-0.0439 0.27367,0.0471 -0.38265,0.0826 -0.98744,0.18262 -1.7576,0.95049 -2.5054,2.39216 0.36459,-1.03309 0.44628,-2.41519 0.54262,-4.09745 0.0492,-1.30637 0.0223,-2.66089 -0.0458,-4.07464 -0.0316,-0.65682 -0.0719,-1.32131 -0.11656,-1.99037 -0.15216,-2.24097 -0.98702,-10.28431 -1.15967,-12.67522 -0.12755,-1.34482 -0.23744,-3.03505 -0.0289,-5.05823 -0.10504,-0.43955 0.2176,-1.54437 1.09841,-3.19557 0.38613,-0.72765 1.24925,-1.41385 2.58116,-2.02599 0,0 6e-5,-3e-5 6e-5,-3e-5 1.4612,-0.38986 2.58897,-0.4006 3.36337,-0.0627 1.88826,0.84228 2.85104,1.5875 3.00402,2.031 0,0 0,10e-6 0,10e-6 0.79884,0.89312 1.3877,1.72322 1.83376,2.42778 1.79208,2.75532 3.21946,5.5535 4.42595,8.00126 3.15522,6.56066 9.32703,14.76649 11.66759,18.24701 3.07328,4.57011 4.4917,7.46836 3.78331,8.07555 -0.66419,0.56931 -3.36274,-1.17821 -7.52064,-4.75303 -3.70785,-3.1879 -10.42981,-9.41478 -15.41426,-17.41175 -1.42459,-2.28971 -2.9367,-4.76848 -4.52931,-6.87472 -0.4328,-0.55734 -0.76831,-0.99949 -1.04951,-1.24222 0,0 0,-1e-5 0,-1e-5 -0.42446,-0.16076 -0.067,-0.055 1.01456,0.53802 0.54797,0.26814 1.42625,0.23722 2.6642,-0.0713 0,0 5e-5,-2e-5 5e-5,-2e-5 1.11408,-0.5328 1.80137,-1.04988 2.0579,-1.58457 0.47345,-1.04543 0.6978,-1.3808 0.51617,-1.08819 -0.0808,0.69503 0.0957,1.72389 0.21996,3.1753 0.40513,3.70055 1.11082,8.43998 1.4409,12.83267 0.0557,0.73037 0.10342,1.4744 0.13896,2.2304 0.0764,1.62632 0.095,3.27817 0.0214,4.95929 -0.0578,2.06729 -0.34707,4.37504 -1.139,6.81135 -1.01809,2.25251 -2.53668,3.60013 -4.3441,4.00004 -1.83942,0.34724 -3.18211,0.285 -3.98222,0.0158 -2.80952,-0.63301 -5.054,-1.71967 -6.80935,-2.7462 -5.78252,-3.19555 -10.53846,-7.14635 -14.2973,-11.12228 -2.13537,-2.22996 -3.96665,-4.55421 -5.41785,-7.06665 -1.36777,-2.18731 -2.27534,-4.79615 -2.32813,-7.57535 -6.5e-4,-1.34893 0.34436,-2.66302 0.95821,-3.83264 0.77279,-1.3648 1.78431,-2.29831 2.7841,-2.90156 6.16186,-3.54521 9.56687,-0.56574 9.55838,-0.6375 z"
       id="path4730" />
    <path
       style="fill:#000000;fill-rule:evenodd;stroke:none;stroke-width:1px;stroke-linecap:butt;stroke-linejoin:miter;stroke-opacity:1"
       d="m 361.63461,700.82907 c 1.17279,0.9481 -1.21732,3.7427 -2.50204,9.13263 -0.29459,1.44343 -0.56331,3.09093 -0.0696,4.05094 0.20403,0.64625 0.83511,1.29999 1.64231,1.95682 0.97969,0.79116 2.29622,1.3812 3.98273,2.13737 0.67743,0.29062 11.01988,4.1261 13.07017,5.04118 4.22061,1.77389 8.92403,4.6026 12.54408,9.256 0.25511,0.32793 0.50383,0.66366 0.74579,1.00735 1.69313,2.36931 3.10243,5.38914 3.59558,9.00453 0.32742,2.89529 -0.41919,5.81122 -2.12445,8.30212 -1.87841,2.43788 -4.11082,3.95358 -6.20499,4.80429 -2.65175,1.15394 -5.24887,1.74619 -7.58363,2.05263 -6.3118,0.8593 -12.03671,0.28261 -16.30881,-0.54947 -2.85735,-0.54658 -5.2256,-1.24946 -7.12282,-2.01241 -3.5185,-1.40628 -5.09373,-2.93486 -4.77595,-3.67635 0.28219,-0.65843 2.33844,-0.67166 5.66058,-0.62971 1.97318,0.0126 4.00741,0.0189 6.77047,-0.0705 3.96755,-0.13878 9.18965,-0.42948 14.16585,-1.67607 1.84667,-0.47504 3.67025,-1.03537 5.15665,-1.86383 1.10778,-0.68327 2.05477,-1.29524 2.30989,-1.91295 0.25321,-0.31647 0.32308,-1.00261 0.24447,-1.6399 -0.0643,-1.23761 -0.97557,-2.72601 -2.102,-4.58625 -0.11629,-0.19368 -0.24102,-0.38415 -0.37387,-0.57166 -1.86168,-2.62753 -5.33141,-4.63521 -8.75155,-6.48874 -5.09577,-2.59762 -7.62349,-3.22735 -12.75246,-6.10655 -1.93896,-1.05387 -3.8525,-2.37813 -5.55028,-4.12608 -1.70759,-1.72876 -2.79553,-3.97814 -3.15525,-6.36939 -0.28062,-3.25684 0.69011,-5.80898 1.73064,-7.54022 3.42891,-5.9619 7.27962,-7.31292 7.75854,-6.92575 z"
       id="path4734" />
    <path
       style="fill:#000000;fill-rule:evenodd;stroke:none;stroke-width:1px;stroke-linecap:butt;stroke-linejoin:miter;stroke-opacity:1"
       d="m 424.26407,733.15396 c 0.47365,-1.64512 5.3196,0.42782 13.60114,1.06556 3.31498,0.21961 7.77216,-0.0118 10.83901,-2.23693 0,-10e-6 10e-6,-10e-6 10e-6,-10e-6 1.6421,-1.12485 3.2386,-2.3563 4.10412,-3.76631 0.53177,-0.87576 0.91723,-1.8133 0.84463,-2.55004 0.0287,-0.66475 -0.26315,-1.48171 -0.69748,-2.32854 -0.48331,-0.91949 -1.27277,-1.81214 -2.23569,-2.7188 -1.96605,-1.78216 -4.43137,-3.20082 -7.08086,-3.88508 -1.06159,-0.23509 -1.96806,-0.40452 -2.60127,-0.28074 -0.40841,0.17804 -0.56046,0.10459 -0.17561,-0.0361 0,0 0,0 0,0 -3.88835,3.95316 -8.01307,7.2326 -12.22613,10.59483 -0.27784,0.2234 -0.5544,0.44571 -0.82776,0.66629 -1.38797,1.11998 -2.67994,2.18456 -3.84191,3.27686 -1.16229,1.12605 -2.13124,2.09302 -2.70493,3.05197 -0.41575,0.74835 -0.73019,1.36364 -0.68521,1.74615 -0.12399,0.435 0.20315,1.20823 0.62285,2.11638 0.74947,1.46513 2.1344,2.90139 3.65851,4.40572 2.4129,2.31287 5.20879,4.4102 7.93834,6.36544 8.4435,5.98201 11.88731,9.06659 18.57588,13.10585 0,0 0,0 0,0 11.63711,7.03646 20.36953,7.30599 20.36953,8.78318 0,0.84287 -9.14589,3.76362 -23.5307,-2.7067 0,0 0,0 0,0 -7.06347,-3.16953 -12.45498,-6.83244 -20.35641,-11.76977 -3.02733,-1.88244 -6.27376,-4.08906 -9.36296,-6.78444 -1.95538,-1.66296 -4.00948,-3.77932 -5.70248,-6.5464 -1.20558,-1.90824 -2.0194,-4.37634 -2.04381,-7.2653 0.13438,-2.58998 0.91202,-4.87055 2.09643,-6.69243 1.30614,-2.06041 2.80567,-3.71191 4.27902,-5.0708 1.46156,-1.38121 2.94583,-2.62389 4.41067,-3.80339 0.28876,-0.23252 0.57567,-0.46171 0.85989,-0.68778 4.28819,-3.4363 8.13082,-6.37456 11.53914,-9.71772 0,0 1e-5,0 1e-5,0 2.08894,-1.83196 4.29448,-2.66194 6.23805,-2.70211 2.31749,-0.14134 4.37292,0.19279 6.09746,0.75344 4.27301,1.29267 7.95871,3.64932 10.81266,6.58159 1.5019,1.50401 2.80783,3.30127 3.7796,5.36264 0.97074,2.03161 1.41995,4.35246 1.2438,6.75093 -0.3069,2.75982 -1.40478,5.08566 -2.87786,6.85194 -2.12493,2.52983 -4.60926,4.17675 -6.8719,5.28264 0,0 0,0 0,0 -5.75724,2.81259 -11.51179,2.32314 -15.46247,1.21767 -8.76711,-2.41009 -12.72002,-6.10068 -12.62531,-6.42965 z"
       id="path4738" />
    <path
       style="fill:#000000;fill-rule:evenodd;stroke:none;stroke-width:1px;stroke-linecap:butt;stroke-linejoin:miter;stroke-opacity:1"
       d="m 68.690373,779.62097 c -0.07439,1.31295 -5.019539,1.57939 -12.981745,2.75009 -2.121317,0.33032 -4.663687,0.65659 -6.455789,1.47401 -0.449548,0.24085 -0.708654,0.35002 -0.618114,0.40557 0.190742,-0.0162 0.36011,-0.32021 0.652663,-0.99885 0.05176,-0.65115 0.11096,-0.97651 0.03513,-1.00509 0.01511,0.0263 0.213262,0.17022 0.520525,0.51387 0.941425,0.95994 2.233376,1.78778 3.845853,2.87299 10e-7,0 4e-6,0 4e-6,0 2.002969,1.30423 4.104861,2.51934 6.456953,3.85765 4.224244,2.39891 11.484088,6.34845 16.470398,9.26132 1.665281,0.97229 3.35914,1.98405 5.056214,3.03991 1.06913,0.66517 2.126873,1.33996 3.173496,2.02842 2.457033,1.61258 4.85491,3.30691 7.158199,5.20119 1.868931,1.50647 3.754357,3.27221 5.429606,5.47496 0.668255,0.86841 1.308928,1.92436 1.847963,3.17545 0.480295,1.0628 0.768635,2.37917 0.785455,3.89497 -0.0377,1.50764 -0.45147,2.91142 -1.185758,4.13867 0,0 -6e-6,0 -6e-6,0 -0.88906,1.38432 -1.89149,2.36868 -2.875179,3.00773 -3.03227,1.98542 -6.0402,2.7853 -8.450236,3.17499 -4.756488,0.91613 -9.328449,1.09647 -13.017629,1.09849 0,0 -3e-6,0 -3e-6,0 -11.85635,0.0305 -18.979979,-1.67638 -18.979979,-2.85871 0,-1.53027 7.165985,-2.29985 18.429896,-4.10085 0,0 4e-6,0 4e-6,0 3.472087,-0.56004 7.74022,-1.25284 11.578823,-2.40193 2.085818,-0.69236 4.057277,-1.27422 5.056565,-2.24466 0.239646,-0.25926 0.369591,-0.36111 0.25828,-0.31587 -10e-7,0 -10e-7,0 -10e-7,0 -0.09438,0.12416 -0.146139,0.2504 -0.178284,0.46238 0.02236,0.1518 -0.04771,0.11711 -0.117602,-0.0916 -0.118023,-0.26701 -0.390558,-0.61482 -0.750137,-1.07907 -0.967044,-1.22304 -2.352361,-2.35832 -3.989853,-3.66832 -1.980548,-1.54657 -4.13204,-2.99892 -6.455783,-4.50527 -0.983394,-0.6359 -1.982483,-1.26734 -2.999477,-1.89977 -1.611426,-1.00207 -3.243335,-1.99135 -4.855539,-2.9625 -5.897376,-3.55079 -10.869884,-6.43087 -16.216156,-9.91625 -2.334979,-1.52 -4.554702,-3.04097 -6.697312,-4.71127 0,0 -4e-6,-1e-5 -4e-6,-1e-5 -1.655803,-1.26028 -3.348469,-2.70853 -4.884023,-4.56399 -0.560564,-0.64315 -1.143322,-1.53315 -1.646591,-2.6742 -0.467537,-0.90979 -0.623399,-2.2101 -0.379477,-3.78306 0.489056,-1.62117 1.28276,-2.72196 2.206047,-3.32432 1.199572,-0.82899 2.269784,-1.24961 3.118728,-1.42502 3.244716,-0.78911 6.228695,-0.69012 8.430164,-0.53307 8.524976,0.49321 13.276254,2.30372 13.223715,3.23103 z"
       id="path4742" />
    <path
       style="fill:none;fill-opacity:1;stroke:#000000;stroke-width:1;stroke-miterlimit:4;stroke-dasharray:none;stroke-opacity:1"
       d="m 233.29448,816.99664 147.5838,0 c 2.77,0 5,2.23 5,5 l 0,123.34014 c 0,2.77 -2.23,5 -5,5 l -147.5838,0 c -2.77,0 -5,-2.23 -5,-5 l 0,-123.34014 c 0,-2.77 2.23,-5 5,-5 z"
       id="rect4746" />
  </g>
</svg>
