<?xml version="1.0" encoding="UTF-8" standalone="no"?>
<!-- Created with Inkscape (http://www.inkscape.org/) -->

<svg
   xmlns:dc="http://purl.org/dc/elements/1.1/"
   xmlns:cc="http://creativecommons.org/ns#"
   xmlns:rdf="http://www.w3.org/1999/02/22-rdf-syntax-ns#"
   xmlns:svg="http://www.w3.org/2000/svg"
   xmlns="http://www.w3.org/2000/svg"
   xmlns:sodipodi="http://sodipodi.sourceforge.net/DTD/sodipodi-0.dtd"
   xmlns:inkscape="http://www.inkscape.org/namespaces/inkscape"
   width="500"
   height="500"
   viewBox="0 0 500.00001 500.00001"
   id="svg4153"
   version="1.1"
   inkscape:version="0.91 r13725"
   sodipodi:docname="searchIcon.svg">
  <defs
     id="defs4155" />
  <sodipodi:namedview
     id="base"
     pagecolor="#ffffff"
     bordercolor="#666666"
     borderopacity="1.0"
     inkscape:pageopacity="0.0"
     inkscape:pageshadow="2"
     inkscape:zoom="0.98994949"
     inkscape:cx="108.86165"
     inkscape:cy="193.84659"
     inkscape:document-units="px"
     inkscape:current-layer="layer1"
     showgrid="false"
     units="px"
     inkscape:window-width="1366"
     inkscape:window-height="745"
     inkscape:window-x="-8"
     inkscape:window-y="-8"
     inkscape:window-maximized="1" />
  <metadata
     id="metadata4158">
    <rdf:RDF>
      <cc:Work
         rdf:about="">
        <dc:format>image/svg+xml</dc:format>
        <dc:type
           rdf:resource="http://purl.org/dc/dcmitype/StillImage" />
        <dc:title></dc:title>
      </cc:Work>
    </rdf:RDF>
  </metadata>
  <g
     inkscape:label="Layer 1"
     inkscape:groupmode="layer"
     id="layer1"
     transform="translate(0,-552.36216)">
    <path
       style="fill:none;fill-opacity:1;stroke:#000000;stroke-width:0.88642341;stroke-miterlimit:4;stroke-dasharray:none;stroke-opacity:1"
       d="m 203.54573,592.68597 c 89.29157,0 161.17612,71.88455 161.17612,161.17612 0,89.29157 -71.88455,161.17612 -161.17612,161.17612 -89.29156,0 -161.176113,-71.88455 -161.176113,-161.17612 0,-89.29157 71.884553,-161.17612 161.176113,-161.17612 z"
       id="rect4701" />
    <path
       inkscape:connector-curvature="0"
       style="fill:none;fill-opacity:1;stroke:#000000;stroke-width:1.09695554;stroke-miterlimit:4;stroke-dasharray:none;stroke-opacity:1"
       d="m 203.04066,553.90036 c 110.49898,0 199.45665,88.95767 199.45665,199.45665 0,56.0139 -22.85906,106.49242 -59.7955,142.65388 -0.73986,0.72433 -3.06882,1.49288 -2.32486,2.44058 2.25057,2.86693 124.27355,119.00823 123.55069,121.73603 -1.90674,7.1954 -18.61995,19.1979 -26.61663,20.716 -4.14948,0.7877 -122.77244,-118.83798 -124.23252,-120.97553 -1.5288,-2.23815 -4.55635,2.94191 -6.88202,4.34424 -30.0633,18.12756 -65.34869,28.54145 -103.15581,28.54145 -110.498972,0 -199.4566428,-88.95767 -199.4566428,-199.45665 0,-110.49898 88.9576708,-199.45665 199.4566428,-199.45665 z"
       id="rect4701-8"
       sodipodi:nodetypes="sssssssssss" />
  </g>
</svg>
