<?xml version="1.0" encoding="UTF-8" standalone="no"?>
<!-- Created with Inkscape (http://www.inkscape.org/) -->

<svg
   xmlns:dc="http://purl.org/dc/elements/1.1/"
   xmlns:cc="http://creativecommons.org/ns#"
   xmlns:rdf="http://www.w3.org/1999/02/22-rdf-syntax-ns#"
   xmlns:svg="http://www.w3.org/2000/svg"
   xmlns="http://www.w3.org/2000/svg"
   xmlns:sodipodi="http://sodipodi.sourceforge.net/DTD/sodipodi-0.dtd"
   xmlns:inkscape="http://www.inkscape.org/namespaces/inkscape"
   width="500"
   height="500"
   viewBox="0 0 500.00001 500.00001"
   id="svg2"
   version="1.1"
   inkscape:version="0.91 r13725"
   sodipodi:docname="svg.svg">
  <defs
     id="defs4" />
  <sodipodi:namedview
     id="base"
     pagecolor="#ffffff"
     bordercolor="#666666"
     borderopacity="1.0"
     inkscape:pageopacity="0.0"
     inkscape:pageshadow="2"
     inkscape:zoom="0.98994949"
     inkscape:cx="205.43201"
     inkscape:cy="268.80878"
     inkscape:document-units="px"
     inkscape:current-layer="layer1"
     showgrid="false"
     units="px"
     inkscape:window-width="1366"
     inkscape:window-height="745"
     inkscape:window-x="-8"
     inkscape:window-y="-8"
     inkscape:window-maximized="1" />
  <metadata
     id="metadata7">
    <rdf:RDF>
      <cc:Work
         rdf:about="">
        <dc:format>image/svg+xml</dc:format>
        <dc:type
           rdf:resource="http://purl.org/dc/dcmitype/StillImage" />
        <dc:title></dc:title>
      </cc:Work>
    </rdf:RDF>
  </metadata>
  <g
     inkscape:label="Layer 1"
     inkscape:groupmode="layer"
     id="layer1"
     transform="translate(0,-552.36216)">
    <path
       style="fill:none;fill-rule:evenodd;stroke:#000000;stroke-width:1px;stroke-linecap:butt;stroke-linejoin:miter;stroke-opacity:1"
       d="m 231.32493,666.48389 -29.29442,-19.1929 -28.28427,5.05076 -37.37565,17.1726 -11.11167,33.33503 9.09137,34.34519 40.4061,5.05076 33.33503,-7.07107 21.21321,32.32488 -19.1929,21.21321 -53.53809,17.17259 -49.49747,5.05076 -3.03046,34.34519 39.39595,11.11168 55.55839,-9.09138 57.5787,-56.56854 -2.02031,-44.44671 -20.20305,-33.33504 -30.30458,-1.01015 -39.39595,-14.14213 26.26397,-22.22336 27.27412,11.11168 z"
       id="path4136"
       inkscape:connector-curvature="0" />
    <path
       style="fill:none;fill-rule:evenodd;stroke:#000000;stroke-width:1px;stroke-linecap:butt;stroke-linejoin:miter;stroke-opacity:1"
       d="m 278.8021,654.36206 55.55839,215.16249 55.55839,3.03046 76.7716,-210.11173 -42.42641,2.0203 -46.46702,157.5838 -29.29442,-7.07107 -32.32488,-164.65486 z"
       id="path4138"
       inkscape:connector-curvature="0" />
    <path
       style="fill:none;fill-rule:evenodd;stroke:#000000;stroke-width:1px;stroke-linecap:butt;stroke-linejoin:miter;stroke-opacity:1"
       d="m 251.52798,909.93065 -48.48732,-11.11168 -49.49747,39.39595 -8.08122,52.52793 31.31473,32.32485 58.58884,2.0203 28.28427,-57.57865 -53.53808,-10.10153 -9.09137,13.13198 30.30457,12.12183 -11.11168,26.26397 c 0,0 -7.07106,6.0609 -22.22335,-1.0102 -15.15229,-7.071 -16.16244,-8.08117 -16.16244,-8.08117 0,0 -10.10153,-10.10153 -10.10153,-24.24366 0,-14.14214 0,-14.14214 0,-14.14214 l 13.13199,-23.23351 18.18274,-17.17259 22.22336,2.0203 17.17259,7.07107 z"
       id="path4140"
       inkscape:connector-curvature="0" />
    <path
       style="fill:none;fill-rule:evenodd;stroke:#000000;stroke-width:1px;stroke-linecap:butt;stroke-linejoin:miter;stroke-opacity:1"
       d="m 318.19805,951.34691 -1.01015,79.80209 72.73098,0 -2.0203,-77.78179 58.58885,-37.37564 -6.06092,-16.16244 -64.64976,38.38579 16.16244,-41.41625 -74.75129,-3.03046 16.16244,41.41625 -58.58885,-39.39594 -7.07107,14.14213 z"
       id="path4142"
       inkscape:connector-curvature="0" />
    <path
       style="fill:none;fill-rule:evenodd;stroke:#000000;stroke-width:1px;stroke-linecap:butt;stroke-linejoin:miter;stroke-opacity:1"
       d="m 40.406102,624.05748 -15.152288,35.35534 29.294423,-13.13198 56.568543,-59.599 -26.263966,-17.1726 z"
       id="path4144"
       inkscape:connector-curvature="0" />
    <path
       style="fill:none;fill-rule:evenodd;stroke:#000000;stroke-width:1px;stroke-linecap:butt;stroke-linejoin:miter;stroke-opacity:1"
       d="M 66.670068,713.96106 27.274119,757.39762 67.680221,798.81387 117.1777,761.43823 Z"
       id="path4146"
       inkscape:connector-curvature="0" />
  </g>
</svg>
