<?xml version="1.0" encoding="UTF-8" standalone="no"?>
<!-- Created with Inkscape (http://www.inkscape.org/) -->

<svg
   xmlns:dc="http://purl.org/dc/elements/1.1/"
   xmlns:cc="http://creativecommons.org/ns#"
   xmlns:rdf="http://www.w3.org/1999/02/22-rdf-syntax-ns#"
   xmlns:svg="http://www.w3.org/2000/svg"
   xmlns="http://www.w3.org/2000/svg"
   xmlns:sodipodi="http://sodipodi.sourceforge.net/DTD/sodipodi-0.dtd"
   xmlns:inkscape="http://www.inkscape.org/namespaces/inkscape"
   width="500"
   height="500"
   viewBox="0 0 500.00001 500.00001"
   id="svg5315"
   version="1.1"
   inkscape:version="0.91 r13725"
   sodipodi:docname="helloWorld.svg">
  <defs
     id="defs5317" />
  <sodipodi:namedview
     id="base"
     pagecolor="#ffffff"
     bordercolor="#666666"
     borderopacity="1.0"
     inkscape:pageopacity="0.0"
     inkscape:pageshadow="2"
     inkscape:zoom="0.98994949"
     inkscape:cx="247.29368"
     inkscape:cy="253.20723"
     inkscape:document-units="px"
     inkscape:current-layer="layer1"
     showgrid="false"
     inkscape:window-width="1366"
     inkscape:window-height="745"
     inkscape:window-x="-8"
     inkscape:window-y="-8"
     inkscape:window-maximized="1"
     units="px" />
  <metadata
     id="metadata5320">
    <rdf:RDF>
      <cc:Work
         rdf:about="">
        <dc:format>image/svg+xml</dc:format>
        <dc:type
           rdf:resource="http://purl.org/dc/dcmitype/StillImage" />
        <dc:title></dc:title>
      </cc:Work>
    </rdf:RDF>
  </metadata>
  <g
     inkscape:label="Layer 1"
     inkscape:groupmode="layer"
     id="layer1"
     transform="translate(0,-552.36216)">
    <path
       style="color:#000000;font-style:normal;font-variant:normal;font-weight:normal;font-stretch:normal;font-size:medium;line-height:normal;font-family:sans-serif;text-indent:0;text-align:start;text-decoration:none;text-decoration-line:none;text-decoration-style:solid;text-decoration-color:#000000;letter-spacing:normal;word-spacing:normal;text-transform:none;direction:ltr;block-progression:tb;writing-mode:lr-tb;baseline-shift:baseline;text-anchor:start;white-space:normal;clip-rule:nonzero;display:inline;overflow:visible;visibility:visible;opacity:1;isolation:auto;mix-blend-mode:normal;color-interpolation:sRGB;color-interpolation-filters:linearRGB;solid-color:#000000;solid-opacity:1;fill:#000000;fill-opacity:1;fill-rule:evenodd;stroke:none;stroke-width:1px;stroke-linecap:butt;stroke-linejoin:miter;stroke-miterlimit:4;stroke-dasharray:none;stroke-dashoffset:0;stroke-opacity:1;color-rendering:auto;image-rendering:auto;shape-rendering:auto;text-rendering:auto;enable-background:accumulate"
       d="m 60.376953,559.26367 c -2.360692,0.10088 -4.752296,0.37394 -7.152344,0.80274 -19.200383,3.43039 -39.053583,16.78807 -49.1835934,32.15039 l -0.1269531,0.1914 0.064453,0.22266 c 5.0155151,17.32932 10.3180974,24.10229 15.6250004,26.56055 5.306903,2.45825 10.399239,0.53724 14.626953,0.8125 2.113856,0.13762 4.005869,0.76135 5.787109,2.69726 1.78124,1.93591 3.438917,5.23332 4.863281,10.70899 2.848729,10.95133 4.763295,30.55927 5.298829,65.16601 0.126968,8.20474 -3.042283,21.50309 -7.59375,37.17774 -4.551468,15.67464 -10.475148,33.75199 -15.822266,51.6582 -5.347118,17.90621 -10.119307,35.63963 -12.365234,50.65625 -2.245928,15.01661 -2.019653,27.33404 2.892578,34.46094 4.324197,6.27375 9.132122,9.56541 14.242187,10.39453 5.110065,0.82911 10.455765,-0.80144 15.867188,-4.1543 C 58.223236,872.06381 69.427596,858.44192 80,842.99219 c 10.572404,-15.44973 20.49201,-32.73103 28.61914,-46.73047 4.06357,-6.99972 7.67883,-13.18003 10.69727,-17.89258 3.01843,-4.71255 5.50355,-7.97559 7.03515,-9.03125 1.54443,-1.0645 2.97971,-1.426 4.39649,-1.23437 1.41677,0.19162 2.84422,0.95777 4.29297,2.26953 2.89748,2.62351 5.81609,7.40815 8.75781,13.60351 5.88343,12.39072 11.91329,30.40625 18.88867,48.24024 6.97538,17.83398 14.89036,35.49336 24.63867,47.24218 4.87416,5.87442 10.21527,10.27889 16.15235,12.44922 5.93707,2.17033 12.46129,2.07711 19.57226,-0.98047 0.45758,-0.19674 0.75392,-0.59951 1.04688,-1.1289 0.29295,-0.52939 0.56616,-1.21067 0.83593,-2.03516 0.53955,-1.64898 1.05579,-3.87123 1.54493,-6.49414 0.97826,-5.24581 1.84156,-12.08979 2.47265,-19.01953 0.6311,-6.92974 1.03052,-13.94179 1.07617,-19.51758 0.0228,-2.78789 -0.0438,-5.21531 -0.21484,-7.10547 -0.17104,-1.89015 -0.38291,-3.20507 -0.91602,-3.97851 -1.18172,-1.71451 -3.52502,-2.30863 -6.32226,-2.59961 -2.79725,-0.29098 -6.12094,-0.25686 -9.41992,-0.47656 -3.29898,-0.21971 -6.5645,-0.69528 -9.21289,-1.94922 -2.6484,-1.25395 -4.68976,-3.24533 -5.67188,-6.63867 -4.34522,-15.01339 -5.08803,-36.77615 -8.06445,-57.30469 -2.97642,-20.52854 -8.18011,-39.89158 -21.70899,-50.08203 -19.92741,-15.01007 -44.73212,-10.30564 -66.47851,-4.01172 -0.35642,0.10316 -0.8083,0.33725 -1.46875,0.69336 -0.660456,0.3561 -1.48915,0.82877 -2.429689,1.37695 -1.88108,1.09637 -4.207364,2.49327 -6.486329,3.85156 -2.278964,1.3583 -4.511681,2.67741 -6.195312,3.60742 -0.841815,0.46501 -1.547752,0.83428 -2.039062,1.05665 -0.178647,0.0809 -0.28685,0.11584 -0.396485,0.15429 -3.362736,-5.11333 -3.738895,-13.83075 -2.34375,-24.56445 1.415488,-10.89021 4.578244,-23.79694 7.921875,-37.01758 3.343632,-13.22064 6.866915,-26.75638 8.998047,-38.9375 2.131132,-12.18112 2.887845,-23.00346 0.611328,-30.86914 -3.561443,-12.3053 -9.99099,-20.16984 -17.951172,-24.49023 -5.970136,-3.2403 -12.77925,-4.48625 -19.861328,-4.1836 z m 0.03906,0.99805 c 6.933544,-0.29671 13.56135,0.92499 19.345703,4.06445 7.71247,4.18595 13.962835,11.78198 17.466797,23.88867 2.191215,7.57096 1.48578,18.29931 -0.634766,30.41993 -2.120546,12.12061 -5.637637,25.63808 -8.982422,38.86328 -3.344784,13.2252 -6.518318,26.15603 -7.945312,37.13476 -1.426995,10.97874 -1.152028,20.02636 2.632812,25.51758 0.15595,0.22626 0.383151,0.24863 0.50586,0.24805 0.122708,-5.8e-4 0.214613,-0.0213 0.314453,-0.0488 0.199679,-0.0551 0.421408,-0.14538 0.691406,-0.26758 0.539996,-0.2444 1.258275,-0.62058 2.111328,-1.0918 1.706106,-0.94242 3.943364,-2.26339 6.224609,-3.62304 2.281246,-1.35966 4.605323,-2.75702 6.476563,-3.84766 0.93562,-0.54532 1.757603,-1.01475 2.400393,-1.36133 0.64279,-0.34657 1.14682,-0.57663 1.27344,-0.61328 21.67904,-6.27442 46.0693,-10.85791 65.59765,3.85156 13.13914,9.8969 18.35693,28.97367 21.32227,49.42579 2.96534,20.45211 3.68557,42.21052 8.09375,57.4414 1.0576,3.65416 3.35791,5.91459 6.20312,7.26172 2.84521,1.34713 6.22471,1.82185 9.57422,2.04492 3.34951,0.22307 6.67765,0.19105 9.38477,0.47266 2.70712,0.28161 4.72206,0.89781 5.60156,2.17383 0.24701,0.35837 0.578,1.664 0.74414,3.5 0.16614,1.83599 0.23164,4.24036 0.20898,7.00781 -0.0453,5.53491 -0.44324,12.52666 -1.07226,19.43359 -0.62902,6.90694 -1.49005,13.73196 -2.45899,18.92774 -0.48446,2.59788 -0.99822,4.79184 -1.51367,6.36718 -0.25772,0.78768 -0.51617,1.42114 -0.75976,1.86133 -0.2436,0.44019 -0.48788,0.66071 -0.56836,0.69532 -6.91533,2.97344 -13.1236,3.04573 -18.83203,0.95898 -5.70844,-2.08675 -10.92496,-6.36146 -15.72657,-12.14844 -9.6032,-11.57394 -17.51321,-29.16359 -24.47656,-46.96679 -6.96334,-17.80321 -12.98716,-35.81419 -18.91797,-48.30469 -2.9654,-6.24525 -5.89321,-11.11361 -8.98828,-13.91602 -1.54753,-1.4012 -3.15215,-2.29258 -4.83008,-2.51953 -1.67793,-0.22695 -3.39953,0.23056 -5.09961,1.40234 -1.87866,1.29488 -4.27165,4.57302 -7.30859,9.31446 -3.03694,4.74144 -6.65614,10.92825 -10.7207,17.92969 -8.129123,14.00286 -18.037363,31.26252 -28.578129,46.66601 -10.540765,15.4035 -21.734288,28.94604 -32.302734,35.49414 -5.284223,3.27405 -10.383101,4.79388 -15.179688,4.01563 -4.796586,-0.77826 -9.357014,-3.85042 -13.578125,-9.97461 -4.610066,-6.68851 -4.95886,-18.81866 -2.726562,-33.74414 2.232297,-14.92549 6.992009,-32.6286 12.333984,-50.51758 5.341975,-17.88899 11.265379,-35.96598 15.824219,-51.66602 4.55884,-15.70003 7.763975,-28.99684 7.632813,-37.47265 -0.536011,-34.63761 -2.435817,-54.27597 -5.330079,-65.40235 -1.44713,-5.56318 -3.142566,-9.01203 -5.095703,-11.13476 -1.953136,-2.12274 -4.178904,-2.86913 -6.458984,-3.01758 -4.560161,-0.2969 -9.370241,1.54679 -14.269531,-0.72266 -4.87404,-2.25774 -10.0507477,-8.68902 -15.009766,-25.70508 9.984991,-15.00284 29.590599,-28.16952 48.384766,-31.52734 2.359225,-0.4215 4.704443,-0.69016 7.015625,-0.78906 z"
       id="path5901"
       inkscape:connector-curvature="0" />
    <path
       style="color:#000000;font-style:normal;font-variant:normal;font-weight:normal;font-stretch:normal;font-size:medium;line-height:normal;font-family:sans-serif;text-indent:0;text-align:start;text-decoration:none;text-decoration-line:none;text-decoration-style:solid;text-decoration-color:#000000;letter-spacing:normal;word-spacing:normal;text-transform:none;direction:ltr;block-progression:tb;writing-mode:lr-tb;baseline-shift:baseline;text-anchor:start;white-space:normal;clip-rule:nonzero;display:inline;overflow:visible;visibility:visible;opacity:1;isolation:auto;mix-blend-mode:normal;color-interpolation:sRGB;color-interpolation-filters:linearRGB;solid-color:#000000;solid-opacity:1;fill:#000000;fill-opacity:1;fill-rule:evenodd;stroke:none;stroke-width:1px;stroke-linecap:butt;stroke-linejoin:miter;stroke-miterlimit:4;stroke-dasharray:none;stroke-dashoffset:0;stroke-opacity:1;color-rendering:auto;image-rendering:auto;shape-rendering:auto;text-rendering:auto;enable-background:accumulate"
       d="m 152.52734,565.40234 c -20.14965,-0.49963 -37.01141,2.6257 -44.84765,11.25196 -3.91812,4.31313 -5.50171,10.02618 -4.01953,17.15039 1.48217,7.1242 5.98272,15.68189 14.18359,25.91015 l 0.21094,0.26368 0.32617,-0.0996 c 19.70999,-6.07003 34.00545,-5.15982 45.56445,1.42578 11.559,6.5856 20.43471,18.91988 29.0918,35.8457 25.98941,50.81296 25.21499,112.32881 36.25781,163.58984 0.37921,1.76028 1.67415,3.2009 3.5586,4.34961 1.88444,1.14871 4.38088,2.0328 7.30859,2.70313 5.85542,1.34067 13.44347,1.81778 21.23828,1.59765 7.79482,-0.22012 15.7905,-1.13868 22.44336,-2.60937 6.65286,-1.47069 11.95421,-3.43981 14.45117,-6.01172 3.07629,-3.16863 5.21719,-8.61433 6.65625,-15.76367 1.43907,-7.14935 2.15827,-16.01439 2.27735,-26.02734 0.23814,-20.02591 -1.93343,-44.64124 -5.6504,-69.19727 -3.71696,-24.55603 -8.97914,-49.04786 -14.93164,-68.82031 -5.95249,-19.77245 -12.51413,-34.8037 -19.16992,-40.58399 -10.54636,-9.1591 -29.19817,-17.6194 -50.26367,-23.95312 -21.0655,-6.33372 -44.53589,-10.52185 -64.68555,-11.02149 z m -0.0234,1 c 20.03035,0.49668 43.43623,4.66881 64.42187,10.97852 20.98564,6.30971 39.55981,14.77665 49.89453,23.75195 6.24419,5.42284 12.93547,20.40727 18.86914,40.11719 5.93367,19.70992 11.18961,44.16643 14.90039,68.68164 3.71078,24.51521 5.87779,49.09133 5.64063,69.03516 -0.11858,9.97191 -0.83955,18.78609 -2.25977,25.84179 -1.42021,7.05571 -3.55737,12.34337 -6.39258,15.26368 -2.16802,2.23309 -7.37771,4.27928 -13.95117,5.73242 -6.57346,1.45313 -14.52029,2.36748 -22.25586,2.58593 -7.73556,0.21846 -15.26459,-0.2622 -20.98632,-1.57226 -2.86087,-0.65503 -5.26913,-1.51979 -7.01172,-2.58203 -1.7426,-1.06224 -2.79744,-2.29331 -3.10157,-3.70508 -11.00597,-51.09 -10.2019,-112.72496 -36.34375,-163.83594 -8.69343,-16.99687 -17.65459,-29.51766 -29.48828,-36.25976 -11.7628,-6.70172 -26.32128,-7.60396 -46.00781,-1.60547 -8.00482,-10.0353 -12.37334,-18.40499 -13.79297,-25.22852 -1.43227,-6.88433 0.0655,-12.18506 3.78125,-16.27539 7.43146,-8.18066 24.05363,-11.42051 44.08399,-10.92383 z"
       id="path5903"
       inkscape:connector-curvature="0" />
    <path
       style="color:#000000;font-style:normal;font-variant:normal;font-weight:normal;font-stretch:normal;font-size:medium;line-height:normal;font-family:sans-serif;text-indent:0;text-align:start;text-decoration:none;text-decoration-line:none;text-decoration-style:solid;text-decoration-color:#000000;letter-spacing:normal;word-spacing:normal;text-transform:none;direction:ltr;block-progression:tb;writing-mode:lr-tb;baseline-shift:baseline;text-anchor:start;white-space:normal;clip-rule:nonzero;display:inline;overflow:visible;visibility:visible;opacity:1;isolation:auto;mix-blend-mode:normal;color-interpolation:sRGB;color-interpolation-filters:linearRGB;solid-color:#000000;solid-opacity:1;fill:#000000;fill-opacity:1;fill-rule:evenodd;stroke:none;stroke-width:1px;stroke-linecap:butt;stroke-linejoin:miter;stroke-miterlimit:4;stroke-dasharray:none;stroke-dashoffset:0;stroke-opacity:1;color-rendering:auto;image-rendering:auto;shape-rendering:auto;text-rendering:auto;enable-background:accumulate"
       d="m 126.17578,625.56641 c -5.27573,0.35781 -10.71653,1.84248 -15.24023,4.59765 -6.03161,3.67356 -10.41993,9.66546 -10.41993,18.13672 0,17.08827 5.43896,27.86826 12.80665,33.45899 7.36768,5.59072 16.61529,5.95153 24.06054,2.35156 7.44526,-3.59997 13.10408,-11.18091 13.32422,-21.375 0.22015,-10.19409 -4.97103,-22.94955 -19.0332,-37.01172 l -0.13086,-0.13086 -0.18555,-0.0137 c -1.68171,-0.12603 -3.42306,-0.13295 -5.18164,-0.0137 z m 0.0703,1 c 1.64946,-0.11303 3.27772,-0.1 4.85547,0.01 13.82443,13.87667 18.81715,26.33678 18.60547,36.13867 -0.21242,9.83634 -5.62948,17.04843 -12.75976,20.4961 -7.13029,3.44767 -15.95587,3.11198 -23.01954,-2.24805 -7.06366,-5.36003 -12.41211,-15.78558 -12.41211,-32.66211 0,-8.12894 4.13493,-13.7448 9.94141,-17.28125 4.35486,-2.65233 9.65557,-4.10135 14.78906,-4.45312 z"
       id="path5905"
       inkscape:connector-curvature="0" />
    <path
       style="color:#000000;font-style:normal;font-variant:normal;font-weight:normal;font-stretch:normal;font-size:medium;line-height:normal;font-family:sans-serif;text-indent:0;text-align:start;text-decoration:none;text-decoration-line:none;text-decoration-style:solid;text-decoration-color:#000000;letter-spacing:normal;word-spacing:normal;text-transform:none;direction:ltr;block-progression:tb;writing-mode:lr-tb;baseline-shift:baseline;text-anchor:start;white-space:normal;clip-rule:nonzero;display:inline;overflow:visible;visibility:visible;opacity:1;isolation:auto;mix-blend-mode:normal;color-interpolation:sRGB;color-interpolation-filters:linearRGB;solid-color:#000000;solid-opacity:1;fill:#000000;fill-opacity:1;fill-rule:evenodd;stroke:none;stroke-width:1px;stroke-linecap:butt;stroke-linejoin:miter;stroke-miterlimit:4;stroke-dasharray:none;stroke-dashoffset:0;stroke-opacity:1;color-rendering:auto;image-rendering:auto;shape-rendering:auto;text-rendering:auto;enable-background:accumulate"
       d="m 411.78125,759.13672 c -3.52836,-0.29359 -7.26222,0.76921 -11.04102,3.5039 -2.81759,2.03908 -5.22498,6.06966 -7.53906,11.02735 -2.31407,4.95769 -4.5093,10.8531 -6.74805,16.61523 -2.23874,5.76214 -4.52282,11.3903 -6.98632,15.78907 -2.4635,4.39876 -5.11788,7.52267 -7.9336,8.4082 -0.0299,0.009 -0.56265,-0.006 -1.28711,-0.2207 -0.72445,-0.21473 -1.68326,-0.57377 -2.82421,-1.03907 -2.28191,-0.93058 -5.29549,-2.28703 -8.73243,-3.79297 -6.87388,-3.01186 -15.44617,-6.61888 -23.39453,-8.62304 -7.94836,-2.00417 -15.32961,-2.46621 -19.7793,1.13867 -2.22484,1.80244 -3.63988,4.62081 -3.95703,8.60156 -0.31714,3.98075 0.43758,9.14229 2.52735,15.78711 0.64431,2.04872 2.74386,3.58506 5.46289,4.9707 2.71903,1.38565 6.11159,2.61151 9.49805,3.86133 3.38645,1.24982 6.76806,2.52339 9.42968,3.96875 2.66162,1.44537 4.55744,3.06021 5.12696,4.8711 4.63699,14.74424 1.49636,24.28179 -5.97461,30.60351 -7.47098,6.32172 -19.40754,9.37796 -32.34766,10.6836 -12.94012,1.30563 -26.86759,0.87723 -38.31641,0.35742 -5.7244,-0.25991 -10.8286,-0.54113 -14.89062,-0.64063 -4.06202,-0.0995 -7.04114,-0.0453 -8.71289,0.48047 -5.03422,1.58326 -11.00341,7.06929 -14.70117,12.79297 -1.84888,2.86184 -3.127,5.78265 -3.36328,8.37109 -0.23629,2.58844 0.66447,4.90351 3.07421,6.16016 28.20769,14.71022 50.49752,20.08844 68.49219,19.7168 17.99467,-0.37164 31.67779,-6.5063 42.61719,-14.73633 10.9394,-8.23003 19.14871,-18.54702 26.26758,-27.29688 7.11886,-8.74986 13.17479,-15.8916 19.56836,-17.90234 3.36806,-1.05924 7.26201,0.2082 11.49414,2.75977 4.23212,2.55156 8.75455,6.35343 13.32812,10.1582 4.57358,3.80477 9.19914,7.61276 13.69727,10.17969 4.49813,2.56692 8.91509,3.91615 13.00195,2.63086 12.18307,-3.83152 17.2562,-14.88441 17.58789,-25.74415 0.3317,-10.85973 -3.94155,-21.64796 -10.78125,-25.21484 -2.1002,-1.09525 -4.87872,-2.12821 -7.52734,-3.30469 -2.64863,-1.17648 -5.15775,-2.50357 -6.67383,-4.07226 -2.81511,-2.91274 -6.99439,-6.78964 -9.9707,-9.45703 8.44105,-1.24735 13.54693,-7.217 15.83789,-15.1543 2.38429,-8.26068 1.86407,-18.62766 -0.69336,-28.2168 -2.55744,-9.58913 -7.14858,-18.40403 -13.05664,-23.52734 -2.95404,-2.56165 -6.25094,-4.20055 -9.7793,-4.49414 z m -0.084,0.99609 c 3.27338,0.27237 6.37349,1.79505 9.20898,4.25391 5.67099,4.91772 10.22644,13.58181 12.74609,23.0293 2.51966,9.44748 3.00864,19.67363 0.69727,27.68164 -2.31137,8.008 -7.3191,13.76839 -15.98633,14.61718 l -1.13867,0.11133 0.85547,0.75977 c 2.95407,2.62073 7.65958,7.00724 10.64453,10.0957 1.69868,1.75762 4.30001,3.09584 6.98633,4.28906 2.68632,1.19323 5.46579,2.23273 7.47265,3.2793 6.24386,3.25615 10.56707,13.72627 10.24414,24.29883 -0.32292,10.57256 -5.15496,21.12755 -16.89062,24.81836 -3.69718,1.16274 -7.82298,-0.0431 -12.20703,-2.54492 -4.38406,-2.50183 -8.98017,-6.27778 -13.55078,-10.08008 -4.57062,-3.80231 -9.1152,-7.63074 -13.45313,-10.2461 -4.33793,-2.61535 -8.51687,-4.0499 -12.30859,-2.85742 -6.85848,2.15696 -12.92091,9.47038 -20.04492,18.22656 -7.12402,8.75619 -15.28326,18.99586 -26.09375,27.12891 -10.8105,8.13306 -24.25869,14.16798 -42.03711,14.53516 -17.77843,0.36717 -39.90302,-4.94696 -68.00782,-19.60352 -2.07114,-1.08008 -2.75338,-2.85515 -2.54101,-5.18164 0.21237,-2.32648 1.41379,-5.14421 3.20703,-7.91992 3.58648,-5.55143 9.55278,-10.93184 14.16016,-12.38086 1.34258,-0.42224 4.35258,-0.53636 8.38867,-0.4375 4.03608,0.0989 9.14077,0.3824 14.87109,0.64258 11.46064,0.52035 25.42795,0.95172 38.46094,-0.36328 13.03299,-1.31501 25.14586,-4.35737 32.89453,-10.91407 7.74867,-6.55669 10.99714,-16.67709 6.2832,-31.66601 -0.70412,-2.23889 -2.84913,-3.95437 -5.60547,-5.45117 -2.75633,-1.4968 -6.17021,-2.7761 -9.56054,-4.02735 -3.39033,-1.25125 -6.75758,-2.47361 -9.38867,-3.81445 -2.6311,-1.34084 -4.47119,-2.81117 -4.96485,-4.38086 -2.06582,-6.56869 -2.78601,-11.62203 -2.48437,-15.4082 0.30164,-3.78617 1.59831,-6.28734 3.59179,-7.90235 3.98697,-3.23001 11.0668,-2.92348 18.9043,-0.94726 7.8375,1.97621 16.37572,5.5634 23.23828,8.57031 3.43128,1.50345 6.44414,2.86195 8.75586,3.80469 1.15586,0.47137 2.13454,0.8381 2.91797,1.07031 0.78343,0.23221 1.32891,0.38536 1.87109,0.21484 3.27104,-1.02872 5.99357,-4.3852 8.50586,-8.87109 2.5123,-4.48589 4.80276,-10.14702 7.04493,-15.91797 2.24216,-5.77094 4.43463,-11.65282 6.72265,-16.55469 2.28802,-4.90186 4.69699,-8.81368 7.21875,-10.63867 3.62631,-2.62434 7.09771,-3.59073 10.3711,-3.31836 z"
       id="path5913"
       inkscape:connector-curvature="0" />
    <path
       style="color:#000000;font-style:normal;font-variant:normal;font-weight:normal;font-stretch:normal;font-size:medium;line-height:normal;font-family:sans-serif;text-indent:0;text-align:start;text-decoration:none;text-decoration-line:none;text-decoration-style:solid;text-decoration-color:#000000;letter-spacing:normal;word-spacing:normal;text-transform:none;direction:ltr;block-progression:tb;writing-mode:lr-tb;baseline-shift:baseline;text-anchor:start;white-space:normal;clip-rule:nonzero;display:inline;overflow:visible;visibility:visible;opacity:1;isolation:auto;mix-blend-mode:normal;color-interpolation:sRGB;color-interpolation-filters:linearRGB;solid-color:#000000;solid-opacity:1;fill:#000000;fill-opacity:1;fill-rule:evenodd;stroke:none;stroke-width:1px;stroke-linecap:butt;stroke-linejoin:miter;stroke-miterlimit:4;stroke-dasharray:none;stroke-dashoffset:0;stroke-opacity:1;color-rendering:auto;image-rendering:auto;shape-rendering:auto;text-rendering:auto;enable-background:accumulate"
       d="m 350.14648,567.14062 c -2.45822,-0.0268 -4.96091,0.0646 -7.46484,0.25391 -10.0157,0.75741 -20.05689,3.10369 -27.4082,5.9082 -3.67566,1.40226 -6.67768,2.91337 -8.68946,4.4336 -1.00588,0.76011 -1.76821,1.52118 -2.23828,2.30859 -0.47006,0.78742 -0.63801,1.64239 -0.36132,2.4336 0.27668,0.7912 0.94813,1.45719 1.96093,2.02148 1.0128,0.56429 2.38801,1.04099 4.17969,1.43555 3.39282,0.74716 8.42894,1.16522 15.14648,1.21093 -0.17724,0.43913 -0.32111,0.99499 -0.45117,1.72071 -0.27016,1.50748 -0.47694,3.66729 -0.63476,6.40625 -0.31564,5.47791 -0.43105,13.26492 -0.40821,22.60351 0.0457,18.67718 0.65053,43.54686 1.35157,68.40821 0.70103,24.86134 1.49867,49.71407 1.92968,68.34765 0.21551,9.31679 0.33786,17.08036 0.3125,22.50586 -0.0127,2.71275 -0.0629,4.84366 -0.15625,6.2793 -0.0264,0.40621 -0.0629,0.61642 -0.0957,0.90625 -0.25322,0.0604 -0.58938,0.1263 -0.79297,0.18359 -0.50435,0.14194 -0.81282,0.21424 -1.10742,0.45508 -0.0736,0.0602 -0.16776,0.14158 -0.2207,0.31641 -0.0529,0.17482 0.0195,0.42716 0.12304,0.54297 0.207,0.2316 0.35867,0.22533 0.53907,0.26171 0.36078,0.0728 0.87042,0.0977 1.6289,0.0977 0.19325,0 0.35523,-0.10833 0.4375,-0.19726 0.0823,-0.0889 0.12184,-0.16862 0.15625,-0.24805 0.0688,-0.15886 0.10759,-0.32574 0.14649,-0.53321 0.003,-0.0156 0.005,-0.0485 0.008,-0.0644 0.16979,-0.0361 0.26286,-0.0663 0.44922,-0.10351 3.13412,-0.62535 8.54941,-1.3827 14.58008,-1.88672 6.03066,-0.50402 12.68564,-0.75523 18.31054,-0.37891 5.6249,0.37632 10.21645,1.45668 12.02539,3.26563 0.074,0.074 0.19199,0.16467 0.36914,0.18554 0.17716,0.0209 0.36071,-0.0615 0.45704,-0.14648 0.19265,-0.17005 0.2202,-0.31341 0.26953,-0.47266 0.0986,-0.31849 0.16274,-0.73803 0.22851,-1.31054 0.13155,-1.14504 0.24673,-2.85774 0.4043,-5.02149 0.31514,-4.32749 0.79008,-10.44622 1.83594,-17.23242 2.0917,-13.57241 6.49104,-29.79573 16.33593,-39.64063 5.41606,-5.41605 14.88903,-10.04066 24.09766,-11.3457 9.20863,-1.30504 18.06092,0.65753 22.59766,8.21875 16.25799,27.09666 18.47317,54.86542 16.64648,75.94922 -0.91334,10.5419 -2.83806,19.40962 -4.52148,25.67578 -0.84172,3.13308 -1.62239,5.61535 -2.1875,7.33399 -0.28256,0.85931 -0.51172,1.5272 -0.66797,1.99414 -0.0781,0.23346 -0.13811,0.41453 -0.17969,0.55273 -0.0208,0.0691 -0.0358,0.12634 -0.0488,0.18359 -0.007,0.0286 -0.0128,0.0572 -0.0176,0.0977 -0.005,0.0405 -0.034,0.0737 0.0215,0.24024 0.47156,1.41468 1.74711,3.92011 3.45312,6.91601 1.70602,2.9959 3.8372,6.45073 5.98829,9.63477 2.15108,3.18403 4.31759,6.09423 6.125,8.01757 0.9037,0.96167 1.70705,1.67728 2.4414,2.07227 0.36718,0.1975 0.72539,0.32565 1.10352,0.30664 0.37813,-0.019 0.75485,-0.23775 0.97265,-0.56445 15.32783,-22.99173 27.47867,-59.83365 27.20508,-96.73047 -0.27359,-36.89682 -13.01798,-73.88308 -47.54687,-96.90234 -6.83601,-4.55734 -19.83279,-5.1824 -32.54688,-3.40821 -12.71409,1.77419 -25.11253,5.95237 -30.71289,11.55274 -0.44112,0.44112 -1.41758,1.61698 -2.73047,3.19336 -1.31288,1.57637 -2.92964,3.5225 -4.53125,5.38476 -1.60161,1.86226 -3.18899,3.6427 -4.42773,4.875 -0.61937,0.61615 -1.15644,1.0962 -1.53516,1.36719 -0.14371,0.10283 -0.2288,0.14246 -0.30664,0.17969 -1.68707,-1.76541 -2.79943,-4.65532 -3.37891,-8.47657 -0.59239,-3.90644 -0.65507,-8.73004 -0.36523,-14.13867 0.57969,-10.81726 2.5605,-23.97734 4.42383,-36.97461 1.86333,-12.99727 3.60935,-25.82978 3.70703,-36.04492 0.0488,-5.10757 -0.30953,-9.56177 -1.29492,-13.07812 -0.98539,-3.51636 -2.61848,-6.13249 -5.14649,-7.39649 -5.44042,-2.72021 -12.41828,-3.86085 -19.79297,-3.94141 z m -0.0117,1.00391 c 7.27778,0.0852 14.12451,1.21558 19.35742,3.83203 2.18765,1.09383 3.68788,3.40844 4.63086,6.77344 0.94297,3.365 1.30614,7.74241 1.25781,12.79688 -0.0967,10.10892 -1.83267,22.91962 -3.69531,35.9121 -1.86265,12.99248 -3.84972,26.16903 -4.4336,37.06446 -0.29193,5.44771 -0.23406,10.32543 0.375,14.34179 0.60906,4.01637 1.76116,7.19085 3.75586,9.18555 0.1233,0.1233 0.30166,0.19074 0.44922,0.20117 0.14756,0.0104 0.27093,-0.0181 0.38477,-0.0566 0.22766,-0.077 0.4334,-0.20465 0.66601,-0.37109 0.46522,-0.33289 1.01976,-0.83558 1.65821,-1.4707 1.27689,-1.27026 2.87134,-3.06065 4.48046,-4.93164 1.60913,-1.871 3.23059,-3.82072 4.54297,-5.39649 1.31238,-1.57577 2.34987,-2.80885 2.66797,-3.12695 5.24693,-5.24693 17.55638,-9.51319 30.14258,-11.26953 12.5862,-1.75634 25.48102,-0.99963 31.85547,3.25 34.21228,22.80818 46.82964,59.40615 47.10156,96.07812 0.27192,36.67197 -11.84781,73.38403 -27.03711,96.16797 -0.0745,0.11171 -0.0907,0.11408 -0.1914,0.11914 -0.1007,0.005 -0.30735,-0.0389 -0.58008,-0.18555 -0.54547,-0.29339 -1.31796,-0.95566 -2.18555,-1.8789 -1.73518,-1.84648 -3.89076,-4.73095 -6.02539,-7.89063 -2.13463,-3.15968 -4.25479,-6.59818 -5.94727,-9.57031 -1.66736,-2.92803 -2.89386,-5.39072 -3.32226,-6.63867 0.002,-0.007 0.002,-0.008 0.004,-0.0156 0.0348,-0.11575 0.0928,-0.29491 0.16992,-0.52539 0.15425,-0.46095 0.38349,-1.13291 0.66797,-1.99804 0.56894,-1.73028 1.35747,-4.23367 2.20507,-7.38868 1.69521,-6.31001 3.63118,-15.23346 4.55078,-25.84765 1.83922,-21.22838 -0.39269,-49.23001 -16.78515,-76.55078 -4.79324,-7.98873 -14.15848,-10.0308 -23.5957,-8.69336 -9.43723,1.33743 -19.03916,6.004 -24.66407,11.6289 -10.12637,10.12638 -14.51181,26.53419 -16.61718,40.19532 -1.05269,6.83056 -1.52828,12.98053 -1.84375,17.3125 -0.15774,2.16598 -0.27612,3.87975 -0.40235,4.97851 -0.0448,0.39 -0.0906,0.58854 -0.13476,0.80274 -2.37701,-1.95506 -6.79238,-2.84831 -12.1543,-3.20704 -5.70661,-0.38179 -12.397,-0.12789 -18.46094,0.37891 -6.06393,0.5068 -11.49298,1.26612 -14.6914,1.9043 -0.0581,0.0116 -0.086,0.0217 -0.14258,0.0332 0.0198,-0.21845 0.0476,-0.34579 0.0645,-0.60547 0.0959,-1.47601 0.14548,-3.61726 0.1582,-6.33984 0.0255,-5.44516 -0.0988,-13.21244 -0.31445,-22.5332 -0.43119,-18.64154 -1.22872,-43.49281 -1.92969,-68.35157 -0.70096,-24.85876 -1.30396,-49.72505 -1.34961,-68.38281 -0.0228,-9.32888 0.0929,-17.10731 0.40625,-22.54492 0.15666,-2.71881 0.36476,-4.85482 0.6211,-6.28516 0.12817,-0.71517 0.27157,-1.25735 0.40625,-1.57812 0.0673,-0.16039 0.13483,-0.26176 0.16601,-0.29688 0.0312,-0.0351 -0.005,0.009 -0.0781,0.0117 l -0.0195,-1 c -0.008,0 -0.012,0 -0.0195,0 -7.25821,-9.5e-4 -12.46243,-0.46125 -15.91993,-1.22266 -1.73054,-0.38109 -3.02271,-0.83976 -3.90625,-1.33203 -0.88353,-0.49227 -1.33976,-1.00355 -1.50586,-1.47851 -0.16609,-0.47496 -0.091,-0.97472 0.27735,-1.5918 0.36837,-0.61708 1.04098,-1.31203 1.98242,-2.02344 1.88287,-1.42282 4.82088,-2.91565 8.44141,-4.29687 7.24106,-2.76245 17.2162,-5.09428 27.12695,-5.84375 2.47769,-0.18737 4.95298,-0.27645 7.37891,-0.24805 z"
       id="path5915"
       inkscape:connector-curvature="0" />
    <path
       style="color:#000000;font-style:normal;font-variant:normal;font-weight:normal;font-stretch:normal;font-size:medium;line-height:normal;font-family:sans-serif;text-indent:0;text-align:start;text-decoration:none;text-decoration-line:none;text-decoration-style:solid;text-decoration-color:#000000;letter-spacing:normal;word-spacing:normal;text-transform:none;direction:ltr;block-progression:tb;writing-mode:lr-tb;baseline-shift:baseline;text-anchor:start;white-space:normal;clip-rule:nonzero;display:inline;overflow:visible;visibility:visible;opacity:1;isolation:auto;mix-blend-mode:normal;color-interpolation:sRGB;color-interpolation-filters:linearRGB;solid-color:#000000;solid-opacity:1;fill:#000000;fill-opacity:1;fill-rule:evenodd;stroke:none;stroke-width:1px;stroke-linecap:butt;stroke-linejoin:miter;stroke-miterlimit:4;stroke-dasharray:none;stroke-dashoffset:0;stroke-opacity:1;color-rendering:auto;image-rendering:auto;shape-rendering:auto;text-rendering:auto;enable-background:accumulate"
       d="m 401.44141,917.07031 c -16.02536,1.44521 -34.16789,13.67338 -51.35352,44.13281 l -0.24023,0.42383 0.41796,0.25 c 43.68951,26.21369 70.51229,30.74248 85.09961,24.6836 7.29366,-3.02944 11.46563,-8.75198 13.00391,-15.59961 1.53828,-6.84764 0.48576,-14.8183 -2.54883,-22.50391 -6.06917,-15.37122 -20.09871,-29.67205 -37.65039,-31.36719 -2.19396,-0.21189 -4.43918,-0.22599 -6.72851,-0.0195 z m 0.0801,0.9961 c 2.23228,-0.2006 4.41962,-0.18649 6.55274,0.0195 17.06496,1.64812 30.86304,15.66036 36.8164,30.73828 2.97669,7.53896 3.98422,15.32838 2.50391,21.91797 -1.48031,6.58958 -5.40504,11.98331 -12.41406,14.89453 -13.96832,5.80177 -40.45674,1.53221 -83.75977,-24.36719 17.01469,-29.95726 34.7544,-41.80612 50.30078,-43.20312 z"
       id="path5917"
       inkscape:connector-curvature="0" />
    <path
       style="color:#000000;font-style:normal;font-variant:normal;font-weight:normal;font-stretch:normal;font-size:medium;line-height:normal;font-family:sans-serif;text-indent:0;text-align:start;text-decoration:none;text-decoration-line:none;text-decoration-style:solid;text-decoration-color:#000000;letter-spacing:normal;word-spacing:normal;text-transform:none;direction:ltr;block-progression:tb;writing-mode:lr-tb;baseline-shift:baseline;text-anchor:start;white-space:normal;clip-rule:nonzero;display:inline;overflow:visible;visibility:visible;opacity:1;isolation:auto;mix-blend-mode:normal;color-interpolation:sRGB;color-interpolation-filters:linearRGB;solid-color:#000000;solid-opacity:1;fill:#000000;fill-opacity:1;fill-rule:evenodd;stroke:none;stroke-width:1px;stroke-linecap:butt;stroke-linejoin:miter;stroke-miterlimit:4;stroke-dasharray:none;stroke-dashoffset:0;stroke-opacity:1;color-rendering:auto;image-rendering:auto;shape-rendering:auto;text-rendering:auto;enable-background:accumulate"
       d="m 406.73828,895.76367 c -15.31432,-0.14624 -31.04632,2.88095 -45.5625,9.50195 -23.22588,10.59361 -43.32925,30.40573 -53.55273,61.07618 -2.12576,6.37727 -6.30113,17.70563 -8.74414,29.25781 -2.44302,11.55219 -3.21289,23.36039 1.73047,30.77539 4.93131,7.397 15.94944,13.0896 29.68359,17.373 13.73415,4.2835 30.20617,7.1252 46.07812,8.6192 15.87196,1.494 31.13713,1.64 42.46875,0.5117 5.66582,-0.5641 10.34528,-1.4416 13.65625,-2.6523 1.65549,-0.6054 2.97227,-1.2916 3.90625,-2.0977 0.93399,-0.8061 1.49414,-1.7732 1.49414,-2.8379 0,-4.9174 -2.42456,-8.327 -6.25781,-10.5137 -3.83325,-2.1866 -9.05346,-3.2324 -14.8457,-3.6875 -11.58449,-0.91 -25.49186,0.5684 -34.95508,0.5684 -1.8406,0 -6.32188,-1.1646 -11.58398,-3.1621 -5.2621,-1.9976 -11.37852,-4.8141 -16.78125,-8.0664 -5.40274,-3.2524 -10.0865,-6.9575 -12.49024,-10.6348 -1.20187,-1.8386 -1.8322,-3.6519 -1.75781,-5.4082 0.0744,-1.7562 0.83941,-3.4878 2.56055,-5.20897 4.45686,-4.45686 13.78214,-5.65614 25.55859,-4.83398 11.77645,0.82216 25.96149,3.60521 40.11328,6.78715 14.15179,3.1819 28.27256,6.7623 39.95899,9.1738 5.84321,1.2057 11.07721,2.1198 15.41406,2.5449 4.33685,0.4252 7.76575,0.3789 10.08398,-0.4219 l 0.16602,-0.057 0.0937,-0.1465 c 18.51294,-29.14118 20.03805,-54.34912 11.16601,-73.76952 -8.87203,-19.4204 -28.07945,-33.00397 -50.83984,-39.0918 -8.53515,-2.28293 -17.57313,-3.51187 -26.76172,-3.59961 z m -0.008,1.00195 c 9.10502,0.0865 18.06022,1.3039 26.51172,3.56446 22.53733,6.02816 41.46903,19.45676 50.1875,38.54101 8.70007,19.04399 7.28037,43.77291 -10.9961,72.63671 -2.04294,0.6651 -5.31263,0.7568 -9.50586,0.3457 -4.27594,-0.4192 -9.48519,-1.3272 -15.31054,-2.5293 -11.6507,-2.4041 -25.77194,-5.9821 -39.94141,-9.168 -14.16947,-3.18583 -28.38471,-5.97936 -40.26172,-6.80854 -11.87701,-0.82919 -21.45906,0.24616 -26.33594,5.12304 -1.8562,1.8562 -2.76586,3.8499 -2.85156,5.8731 -0.0857,2.0231 0.63857,4.0427 1.91797,6 2.55881,3.9145 7.34271,7.6486 12.8125,10.9414 5.46979,3.2927 11.63022,6.1276 16.94336,8.1445 5.31314,2.0169 9.70741,3.2285 11.9375,3.2285 9.56653,0 23.43773,-1.4688 34.875,-0.5703 5.71863,0.4492 10.81914,1.497 14.42969,3.5566 3.61055,2.0597 5.7539,5.049 5.7539,9.6465 0,0.7235 -0.35694,1.397 -1.14843,2.0801 -0.79149,0.6831 -2.01029,1.3363 -3.59571,1.916 -3.17083,1.1595 -7.7927,2.0383 -13.41015,2.5977 -11.23491,1.1186 -26.45901,0.9772 -42.27735,-0.5118 -15.81833,-1.4889 -32.23789,-4.3269 -45.875,-8.58 -13.6371,-4.2532 -24.47031,-9.9555 -29.14843,-16.9727 -4.64048,-6.9607 -4.00666,-18.5577 -1.58399,-30.01366 2.42267,-11.45597 6.57541,-22.736 8.71289,-29.14844 10.14006,-30.42018 30.0253,-49.99358 53.02149,-60.48242 14.37262,-6.55552 29.96363,-9.55429 45.13867,-9.41016 z"
       id="path5921"
       inkscape:connector-curvature="0" />
    <path
       style="color:#000000;font-style:normal;font-variant:normal;font-weight:normal;font-stretch:normal;font-size:medium;line-height:normal;font-family:sans-serif;text-indent:0;text-align:start;text-decoration:none;text-decoration-line:none;text-decoration-style:solid;text-decoration-color:#000000;letter-spacing:normal;word-spacing:normal;text-transform:none;direction:ltr;block-progression:tb;writing-mode:lr-tb;baseline-shift:baseline;text-anchor:start;white-space:normal;clip-rule:nonzero;display:inline;overflow:visible;visibility:visible;opacity:1;isolation:auto;mix-blend-mode:normal;color-interpolation:sRGB;color-interpolation-filters:linearRGB;solid-color:#000000;solid-opacity:1;fill:#000000;fill-opacity:1;fill-rule:evenodd;stroke:none;stroke-width:1px;stroke-linecap:butt;stroke-linejoin:miter;stroke-miterlimit:4;stroke-dasharray:none;stroke-dashoffset:0;stroke-opacity:1;color-rendering:auto;image-rendering:auto;shape-rendering:auto;text-rendering:auto;enable-background:accumulate"
       d="m 106.65234,913.93164 c -16.025355,1.44521 -34.167882,13.67143 -51.353512,44.13086 l -0.238281,0.42383 0.417969,0.25 c 43.689503,26.21368 70.510334,30.74247 85.097654,24.68359 7.29366,-3.02944 11.46758,-8.75197 13.00586,-15.59961 1.53828,-6.84763 0.48576,-14.81634 -2.54883,-22.50195 -6.06917,-15.37122 -20.09871,-29.67401 -37.65039,-31.36914 -2.19396,-0.21189 -4.44113,-0.22404 -6.73047,-0.0176 z m 0.082,0.99414 c 2.23227,-0.20059 4.41961,-0.18648 6.55273,0.0195 17.06496,1.64813 30.86304,15.66232 36.81641,30.74024 2.97668,7.53895 3.98226,15.32643 2.50195,21.91601 -1.48031,6.58959 -5.40309,11.98332 -12.41211,14.89453 -13.96832,5.80178 -40.456724,1.53222 -83.759766,-24.36718 17.014252,-29.95543 34.754823,-41.80616 50.300786,-43.20313 z"
       id="path5917-3"
       inkscape:connector-curvature="0" />
    <path
       style="color:#000000;font-style:normal;font-variant:normal;font-weight:normal;font-stretch:normal;font-size:medium;line-height:normal;font-family:sans-serif;text-indent:0;text-align:start;text-decoration:none;text-decoration-line:none;text-decoration-style:solid;text-decoration-color:#000000;letter-spacing:normal;word-spacing:normal;text-transform:none;direction:ltr;block-progression:tb;writing-mode:lr-tb;baseline-shift:baseline;text-anchor:start;white-space:normal;clip-rule:nonzero;display:inline;overflow:visible;visibility:visible;opacity:1;isolation:auto;mix-blend-mode:normal;color-interpolation:sRGB;color-interpolation-filters:linearRGB;solid-color:#000000;solid-opacity:1;fill:#000000;fill-opacity:1;fill-rule:evenodd;stroke:none;stroke-width:1px;stroke-linecap:butt;stroke-linejoin:miter;stroke-miterlimit:4;stroke-dasharray:none;stroke-dashoffset:0;stroke-opacity:1;color-rendering:auto;image-rendering:auto;shape-rendering:auto;text-rendering:auto;enable-background:accumulate"
       d="m 111.95117,892.62305 c -15.314318,-0.14624 -31.046323,2.88095 -45.562498,9.50195 -23.22588,10.5936 -43.331206,30.40572 -53.554688,61.07617 -2.125758,6.37727 -6.2991728,17.7076 -8.7421871,29.25977 -2.4430143,11.55216 -3.21288475,23.36036 1.7304687,30.77536 4.9313124,7.397 15.9474924,13.0877 29.6816404,17.3711 13.734149,4.2834 30.206172,7.1271 46.078125,8.6211 15.871954,1.494 31.139079,1.6381 42.470699,0.5098 5.66582,-0.5642 10.34528,-1.4416 13.65625,-2.6524 1.65549,-0.6053 2.97032,-1.2915 3.9043,-2.0976 0.93399,-0.8061 1.49414,-1.7732 1.49414,-2.8379 0,-4.9174 -2.42261,-8.327 -6.25586,-10.5137 -3.83325,-2.1866 -9.05541,-3.2305 -14.84765,-3.6855 -11.58449,-0.9101 -25.491863,0.5683 -34.955082,0.5683 -1.840603,0 -6.31993,-1.1665 -11.582031,-3.164 -5.262101,-1.9976 -11.378515,-4.8141 -16.78125,-8.0664 -5.402735,-3.2524 -10.088447,-6.9556 -12.492188,-10.6329 -1.20187,-1.8386 -1.830248,-3.6539 -1.755859,-5.4101 0.07439,-1.75626 0.837456,-3.48785 2.558594,-5.20899 4.456861,-4.45686 13.782141,-5.65419 25.558594,-4.83203 11.776452,0.82216 25.961493,3.60521 40.113282,6.78711 14.15179,3.18191 28.27256,6.76041 39.95898,9.17191 5.84321,1.2057 11.07722,2.1197 15.41407,2.5449 4.33684,0.4251 7.7677,0.3808 10.08593,-0.4199 l 0.16407,-0.057 0.0937,-0.1484 c 18.51294,-29.1412 20.04,-54.3472 11.16796,-73.76759 -8.87203,-19.4204 -28.07945,-33.00398 -50.83984,-39.0918 -8.53515,-2.28293 -17.57313,-3.51382 -26.76172,-3.60156 z m -0.008,1.00195 c 9.10502,0.0865 18.05827,1.30389 26.50976,3.56445 22.53734,6.02816 41.47099,19.45872 50.18946,38.54297 8.69992,19.04366 7.27754,43.7716 -10.99805,72.63478 -2.04306,0.6647 -5.31361,0.7586 -9.50586,0.3476 -4.27594,-0.4191 -9.48324,-1.3272 -15.30859,-2.5293 -11.6507,-2.404 -25.77389,-5.984 -39.94336,-9.16988 -14.169471,-3.18587 -28.384708,-5.97941 -40.26172,-6.80859 -11.877012,-0.82918 -21.459059,0.24617 -26.335938,5.12305 -1.856206,1.8562 -2.765869,3.84993 -2.851562,5.87302 -0.08569,2.0231 0.640518,4.0428 1.919922,6 2.558808,3.9145 7.34271,7.6507 12.8125,10.9434 5.46979,3.2927 11.628268,6.1276 16.941406,8.1445 5.313138,2.0169 9.707413,3.2285 11.9375,3.2285 9.566528,0 23.439692,-1.4707 34.876952,-0.5722 5.71863,0.4492 10.81914,1.4989 14.42969,3.5586 3.61055,2.0596 5.75195,5.047 5.75195,9.6445 0,0.7235 -0.35499,1.397 -1.14648,2.0801 -0.79149,0.6831 -2.01029,1.3362 -3.59571,1.916 -3.17083,1.1595 -7.79465,2.0383 -13.41211,2.5976 -11.2349,1.1187 -26.459006,0.9772 -42.277339,-0.5117 -15.818333,-1.4889 -32.23594,-4.3249 -45.873047,-8.5781 -13.637106,-4.2532 -24.470309,-9.9555 -29.1484371,-16.9727 -4.6404765,-6.9607 -4.0066526,-18.5577 -1.5839844,-30.01363 2.4226682,-11.45596 6.5754095,-22.73795 8.7128905,-29.15039 10.140058,-30.42018 30.023342,-49.99359 53.019531,-60.48242 14.372619,-6.55553 29.965587,-9.55429 45.140626,-9.41016 z"
       id="path5921-3"
       inkscape:connector-curvature="0" />
    <path
       style="color:#000000;font-style:normal;font-variant:normal;font-weight:normal;font-stretch:normal;font-size:medium;line-height:normal;font-family:sans-serif;text-indent:0;text-align:start;text-decoration:none;text-decoration-line:none;text-decoration-style:solid;text-decoration-color:#000000;letter-spacing:normal;word-spacing:normal;text-transform:none;direction:ltr;block-progression:tb;writing-mode:lr-tb;baseline-shift:baseline;text-anchor:start;white-space:normal;clip-rule:nonzero;display:inline;overflow:visible;visibility:visible;opacity:1;isolation:auto;mix-blend-mode:normal;color-interpolation:sRGB;color-interpolation-filters:linearRGB;solid-color:#000000;solid-opacity:1;fill:#000000;fill-opacity:1;fill-rule:evenodd;stroke:none;stroke-width:1px;stroke-linecap:butt;stroke-linejoin:miter;stroke-miterlimit:4;stroke-dasharray:none;stroke-dashoffset:0;stroke-opacity:1;color-rendering:auto;image-rendering:auto;shape-rendering:auto;text-rendering:auto;enable-background:accumulate"
       d="m 263.29688,930.90234 c -0.43442,0.006 -0.89766,0.14283 -1.11915,0.55274 -4.15476,7.68913 -5.88231,17.45454 -8.56054,26.49023 -2.67823,9.0357 -6.27841,17.29602 -14.03907,22.1211 -16.99287,10.56514 -31.16994,9.12077 -41.54101,10.70703 -5.18553,0.79313 -9.47369,2.39553 -12.47852,6.69922 -3.00482,4.30364 -4.71896,11.20104 -5.08007,22.57034 -0.0225,0.7098 -0.38729,4.6932 -0.62696,8.4765 -0.11983,1.8917 -0.20882,3.7508 -0.20898,5.1836 -8e-5,0.7164 0.0205,1.3234 0.0762,1.7949 0.0278,0.2358 0.064,0.4358 0.12109,0.6172 0.0571,0.1815 0.10628,0.3846 0.38868,0.5371 19.04442,10.2906 39.26578,3.5185 54.59765,-5.7636 7.66594,-4.6411 14.12981,-9.9158 18.65821,-14.0332 1.36185,-1.2383 2.16622,-2.0779 3.1582,-3.0586 -0.29702,1.5373 -0.49238,3.2624 -0.48242,5.3027 0.0281,5.766 1.24488,13.1576 3.63672,19.7715 2.39183,6.6139 5.94452,12.474 10.79882,15.0664 2.42715,1.2962 5.18826,1.7477 8.19727,1.0293 3.00901,-0.7184 6.25772,-2.5865 9.75781,-5.8711 4.82772,-4.5305 6.90366,-11.6511 7.66016,-20.0273 0.7565,-8.3763 0.19006,-18.0433 -0.375,-27.7676 -0.56506,-9.7243 -1.12908,-19.50605 -0.39453,-28.06642 0.73455,-8.56038 2.7716,-15.87257 7.3164,-20.73438 l 0.5,-0.53516 -0.67969,-0.27148 c -0.28358,-0.11344 -1.19275,-0.60107 -2.43945,-1.31836 -1.2467,-0.71729 -2.87042,-1.67598 -4.74023,-2.7832 -3.73963,-2.21445 -8.4647,-5.02523 -13.15039,-7.70313 -4.6857,-2.6779 -9.32893,-5.22345 -12.92578,-6.91601 -1.79843,-0.84629 -3.32994,-1.47872 -4.50586,-1.8125 -0.58797,-0.1669 -1.08512,-0.26373 -1.51953,-0.25782 z m 0.0137,1 c 0.26363,-0.004 0.69565,0.0664 1.23242,0.21875 1.07354,0.30473 2.57989,0.9232 4.35351,1.75782 3.54726,1.66922 8.17998,4.20683 12.85547,6.8789 4.6755,2.67207 9.39575,5.47812 13.13672,7.69336 1.87049,1.10762 3.49682,2.06692 4.75195,2.78906 0.98649,0.56758 1.522,0.8443 2.01758,1.08594 -4.48421,5.10396 -6.49126,12.41442 -7.21289,20.82422 -0.7438,8.66822 -0.17248,18.48267 0.39258,28.20701 0.56507,9.7244 1.1232,19.3584 0.37695,27.6211 -0.74625,8.2628 -2.79839,15.1195 -7.34765,19.3887 -3.4127,3.2026 -6.52106,4.9619 -9.30664,5.6269 -2.78558,0.6651 -5.25663,0.2555 -7.49414,-0.9394 -4.47503,-2.3899 -7.98063,-8.0322 -10.32813,-14.5235 -2.3475,-6.4912 -3.55066,-13.8089 -3.57812,-19.4374 -0.0131,-2.6728 0.26088,-4.9189 0.75781,-6.5333 0.21495,-0.2195 0.62891,-0.5953 0.81641,-0.791 0.60282,-0.6291 1.06096,-1.1301 1.36718,-1.4785 0.15311,-0.1742 0.2677,-0.3096 0.34766,-0.4101 0.04,-0.05 0.0699,-0.089 0.10156,-0.1368 0.0158,-0.024 0.0314,-0.042 0.0606,-0.1132 0.0146,-0.036 0.0372,-0.2329 0.0371,-0.2344 -1.2e-4,-0 -0.48296,-0.4609 -0.48438,-0.461 -0.73392,-0.023 -1.4071,0.295 -1.92187,0.8301 -0.51478,0.5352 -0.90165,1.2745 -1.20703,2.1758 -0.01,0.029 -0.0117,0.074 -0.0215,0.1035 -1.13691,1.1557 -2.38799,2.4199 -4.20312,4.0703 -4.49242,4.0848 -10.9102,9.3219 -18.50196,13.918 -15.1592,9.1776 -34.9192,15.7725 -53.51562,5.7793 -0.0252,-0.081 -0.0567,-0.2338 -0.0801,-0.4316 -0.0471,-0.3992 -0.0704,-0.9822 -0.0703,-1.6778 1.5e-4,-1.3911 0.0878,-3.2375 0.20703,-5.1191 0.23839,-3.7632 0.60012,-7.6036 0.62891,-8.5098 0.3583,-11.2809 2.08212,-17.9928 4.90039,-22.02928 2.81827,-4.03649 6.73892,-5.50554 11.81054,-6.28125 10.14324,-1.55141 24.67797,-0.12887 41.91797,-10.84765 8.07736,-5.02199 11.7684,-13.57718 14.46875,-22.6875 2.70035,-9.11033 4.43982,-18.82089 8.48047,-26.29883 -0.0142,0.0262 -0.01,-0.0238 0.25391,-0.0274 z"
       id="path5941"
       inkscape:connector-curvature="0" />
  </g>
</svg>
