<?xml version="1.0" encoding="UTF-8" standalone="no"?>
<!-- Created with Inkscape (http://www.inkscape.org/) -->

<svg
   xmlns:dc="http://purl.org/dc/elements/1.1/"
   xmlns:cc="http://creativecommons.org/ns#"
   xmlns:rdf="http://www.w3.org/1999/02/22-rdf-syntax-ns#"
   xmlns:svg="http://www.w3.org/2000/svg"
   xmlns="http://www.w3.org/2000/svg"
   xmlns:sodipodi="http://sodipodi.sourceforge.net/DTD/sodipodi-0.dtd"
   xmlns:inkscape="http://www.inkscape.org/namespaces/inkscape"
   width="500"
   height="500"
   viewBox="0 0 500.00001 500.00001"
   id="svg5402"
   version="1.1"
   inkscape:version="0.91 r13725"
   sodipodi:docname="phone.svg">
  <defs
     id="defs5404" />
  <sodipodi:namedview
     id="base"
     pagecolor="#ffffff"
     bordercolor="#666666"
     borderopacity="1.0"
     inkscape:pageopacity="0.0"
     inkscape:pageshadow="2"
     inkscape:zoom="0.7"
     inkscape:cx="118.86418"
     inkscape:cy="341.22418"
     inkscape:document-units="px"
     inkscape:current-layer="layer2"
     showgrid="false"
     units="px"
     inkscape:window-width="1366"
     inkscape:window-height="745"
     inkscape:window-x="-8"
     inkscape:window-y="-8"
     inkscape:window-maximized="1" />
  <metadata
     id="metadata5407">
    <rdf:RDF>
      <cc:Work
         rdf:about="">
        <dc:format>image/svg+xml</dc:format>
        <dc:type
           rdf:resource="http://purl.org/dc/dcmitype/StillImage" />
        <dc:title></dc:title>
      </cc:Work>
    </rdf:RDF>
  </metadata>
  <g
     inkscape:groupmode="layer"
     id="layer2"
     inkscape:label="phoneinsides">
    <path
       style="fill:none;fill-rule:evenodd;stroke:#000000;stroke-width:1.58711505px;stroke-linecap:butt;stroke-linejoin:miter;stroke-opacity:1"
       d="m 18.26374,69.531685 0,367.139275 266.1359,0 0,-367.139275 z"
       id="path5953"
       inkscape:connector-curvature="0" />
    <path
       style="fill:none;fill-rule:evenodd;stroke:#000000;stroke-width:1.58711505px;stroke-linecap:butt;stroke-linejoin:miter;stroke-opacity:1"
       d="m 118.70889,35.374356 52.14806,0 c 0,0 12.36845,8.502402 0,8.502402 l -52.14806,0 c 0,0 -11.13651,-2.072734 0,-8.502402 z"
       id="path5955"
       inkscape:connector-curvature="0"
       sodipodi:nodetypes="ccscc" />
    <path
       style="fill:none;fill-rule:evenodd;stroke:#000000;stroke-width:2.89503098px;stroke-linecap:butt;stroke-linejoin:miter;stroke-opacity:1"
       d="m 143.78271,445.39752 c 0,0 21.19572,1.03393 21.19572,21.19575 0,20.16182 -13.95814,21.19575 -21.19572,21.19575 -7.23759,0 -20.67879,-8.27151 -20.67879,-20.67878 0,-12.40729 20.67879,-21.71272 20.67879,-21.71272 z"
       id="path5957"
       inkscape:connector-curvature="0" />
    <path
       style="fill:none;fill-rule:evenodd;stroke:#000000;stroke-width:0.60693133px;stroke-linecap:butt;stroke-linejoin:miter;stroke-opacity:1"
       d="m 142.68125,15.864272 c 0,0 4.44359,0.216757 4.44359,4.4436 0,4.226843 -2.92628,4.443602 -4.44359,4.443602 -1.51734,0 -4.33522,-1.734087 -4.33522,-4.335221 0,-2.601137 4.33522,-4.551981 4.33522,-4.551981 z"
       id="path5957-3"
       inkscape:connector-curvature="0" />
    <path
       style="fill:none;fill-rule:evenodd;stroke:#000000;stroke-width:0.60693133px;stroke-linecap:butt;stroke-linejoin:miter;stroke-opacity:1"
       d="m 97.682111,34.900139 c 0,0 4.443589,0.216757 4.443589,4.4436 0,4.226843 -2.926276,4.443601 -4.443589,4.443601 -1.517346,0 -4.335221,-1.734086 -4.335221,-4.335221 0,-2.601137 4.335221,-4.55198 4.335221,-4.55198 z"
       id="path5957-3-6"
       inkscape:connector-curvature="0" />
    <path
       style="fill:none;fill-rule:evenodd;stroke:#000000;stroke-width:1.58711505px;stroke-linecap:butt;stroke-linejoin:miter;stroke-opacity:1"
       d="M 22.3327,2.9692692 277.246,1.3660449 c 0,0 24.04841,6.412913 24.04841,24.0484271 0,17.635499 0,437.681288 0,437.681288 0,0 6.41293,33.66781 -25.65165,33.66781 -32.06456,0 -250.103603,-1.60324 -250.103603,-1.60324 0,0 -24.0484244,-3.20645 -24.0484244,-24.04843 0,-20.84197 0,-440.887739 0,-440.887739 0,0 -3.2064566,-27.2548918 20.8419674,-27.2548918 z"
       id="path5950"
       inkscape:connector-curvature="0" />
    <path
       style="fill:none;fill-rule:evenodd;stroke:#000000;stroke-width:1px;stroke-linecap:butt;stroke-linejoin:miter;stroke-opacity:1"
       d="m 357.28659,1.713406 c 0,0 17.14286,-2.857143 17.14286,17.142857 0,20 0,212.857147 0,212.857147 0,0 -1.42857,15.71428 -15.71429,15.71428 -14.28571,0 -30,0 -30,0 0,0 -16.42857,-1.42857 -16.42857,-16.42857 0,-15 0,-216.428572 0,-216.428572 0,0 0,-11.071428 11.07143,-11.071428 11.07143,0 33.92857,-1.785714 33.92857,-1.785714 z"
       id="path6136"
       inkscape:connector-curvature="0" />
    <path
       style="fill:none;fill-rule:evenodd;stroke:#000000;stroke-width:1px;stroke-linecap:butt;stroke-linejoin:miter;stroke-opacity:1"
       d="m 432.5,1.213897 c 0,0 17.14286,-2.857143 17.14286,17.142857 0,20 0,212.857146 0,212.857146 0,0 -1.42857,15.71428 -15.71429,15.71428 -14.28571,0 -30,0 -30,0 0,0 -16.42857,-1.42857 -16.42857,-16.42857 0,-15 0,-216.428571 0,-216.428571 0,0 0,-11.071428 11.07143,-11.071428 11.07143,0 33.92857,-1.785714 33.92857,-1.785714 z"
       id="path6136-3"
       inkscape:connector-curvature="0" />
    <path
       style="fill:none;fill-rule:evenodd;stroke:#000000;stroke-width:1px;stroke-linecap:butt;stroke-linejoin:miter;stroke-opacity:1"
       d="m 359.07143,250.64247 c 0,0 17.14286,-2.85714 17.14286,17.14286 0,20 0,212.85714 0,212.85714 0,0 -1.42857,15.71428 -15.71429,15.71428 -14.28571,0 -30,0 -30,0 0,0 -16.42857,-1.42857 -16.42857,-16.42857 0,-15 0,-216.42857 0,-216.42857 0,0 0,-11.07143 11.07143,-11.07143 11.07143,0 33.92857,-1.78571 33.92857,-1.78571 z"
       id="path6136-34"
       inkscape:connector-curvature="0" />
    <path
       style="fill:none;fill-rule:evenodd;stroke:#000000;stroke-width:1px;stroke-linecap:butt;stroke-linejoin:miter;stroke-opacity:1"
       d="m 436.78571,250.92818 c 0,0 17.14286,-2.85714 17.14286,17.14286 0,20 0,212.85715 0,212.85715 0,0 -1.42857,15.71428 -15.71429,15.71428 -14.28571,0 -30,0 -30,0 0,0 -16.42857,-1.42857 -16.42857,-16.42857 0,-15 0,-216.42858 0,-216.42858 0,0 0,-11.07142 11.07143,-11.07142 11.07143,0 33.92857,-1.78572 33.92857,-1.78572 z"
       id="path6136-8"
       inkscape:connector-curvature="0" />
  </g>
  <g
     inkscape:label="Layer 1"
     inkscape:groupmode="layer"
     id="layer1"
     transform="translate(0,-552.36216)" />
</svg>
