<?xml version="1.0" encoding="UTF-8" standalone="no"?>
<!-- Created with Inkscape (http://www.inkscape.org/) -->

<svg
   xmlns:osb="http://www.openswatchbook.org/uri/2009/osb"
   xmlns:dc="http://purl.org/dc/elements/1.1/"
   xmlns:cc="http://creativecommons.org/ns#"
   xmlns:rdf="http://www.w3.org/1999/02/22-rdf-syntax-ns#"
   xmlns:svg="http://www.w3.org/2000/svg"
   xmlns="http://www.w3.org/2000/svg"
   xmlns:xlink="http://www.w3.org/1999/xlink"
   xmlns:sodipodi="http://sodipodi.sourceforge.net/DTD/sodipodi-0.dtd"
   xmlns:inkscape="http://www.inkscape.org/namespaces/inkscape"
   width="500"
   height="500"
   viewBox="0 0 500.00001 500.00001"
   id="svg6911"
   version="1.1"
   inkscape:version="0.91 r13725"
   sodipodi:docname="phoneLogos.svg">
  <defs
     id="defs6913">
    <linearGradient
       id="linearGradient7657"
       osb:paint="solid">
      <stop
         style="stop-color:#000000;stop-opacity:1;"
         offset="0"
         id="stop7659" />
    </linearGradient>
    <linearGradient
       id="linearGradient7602"
       osb:paint="solid">
      <stop
         style="stop-color:#000000;stop-opacity:1;"
         offset="0"
         id="stop7604" />
    </linearGradient>
    <linearGradient
       id="linearGradient7487"
       osb:paint="solid">
      <stop
         style="stop-color:#000000;stop-opacity:1;"
         offset="0"
         id="stop7489" />
    </linearGradient>
    <linearGradient
       inkscape:collect="always"
       xlink:href="#linearGradient6745"
       id="linearGradient6749"
       x1="331.79041"
       y1="685.81104"
       x2="415.72247"
       y2="685.81104"
       gradientUnits="userSpaceOnUse"
       gradientTransform="translate(-317.25059,-77.48329)" />
    <linearGradient
       id="linearGradient6745"
       osb:paint="solid">
      <stop
         style="stop-color:#000000;stop-opacity:1;"
         offset="0"
         id="stop6747" />
    </linearGradient>
    <linearGradient
       inkscape:collect="always"
       xlink:href="#linearGradient7602"
       id="linearGradient7606"
       x1="54.333984"
       y1="179.29258"
       x2="195.03223"
       y2="179.29258"
       gradientUnits="userSpaceOnUse" />
    <linearGradient
       inkscape:collect="always"
       xlink:href="#linearGradient7657"
       id="linearGradient7661"
       x1="2.4111328"
       y1="176.2336"
       x2="361.02441"
       y2="176.2336"
       gradientUnits="userSpaceOnUse" />
  </defs>
  <sodipodi:namedview
     id="base"
     pagecolor="#ffffff"
     bordercolor="#666666"
     borderopacity="1.0"
     inkscape:pageopacity="0.0"
     inkscape:pageshadow="2"
     inkscape:zoom="0.98994949"
     inkscape:cx="219.99169"
     inkscape:cy="242.76585"
     inkscape:document-units="px"
     inkscape:current-layer="flowRoot7628"
     showgrid="false"
     units="px"
     inkscape:window-width="1366"
     inkscape:window-height="745"
     inkscape:window-x="-8"
     inkscape:window-y="-8"
     inkscape:window-maximized="1" />
  <metadata
     id="metadata6916">
    <rdf:RDF>
      <cc:Work
         rdf:about="">
        <dc:format>image/svg+xml</dc:format>
        <dc:type
           rdf:resource="http://purl.org/dc/dcmitype/StillImage" />
        <dc:title></dc:title>
      </cc:Work>
    </rdf:RDF>
  </metadata>
  <g
     inkscape:label="Layer 1"
     inkscape:groupmode="layer"
     id="layer1"
     transform="translate(0,-552.36216)">
    <path
       style="fill:none;fill-opacity:1;stroke:#000000;stroke-width:1;stroke-miterlimit:4;stroke-dasharray:none;stroke-opacity:1"
       d="m 25.426407,694.85449 37.477169,0 c 2.77,0 5,2.23 5,5 l 0,37.47717 c 0,2.77 -2.23,5 -5,5 l -37.477169,0 c -2.77,0 -5,-2.23 -5,-5 l 0,-37.47717 c 0,-2.77 2.23,-5 5,-5 z"
       id="rect7523"
       inkscape:connector-curvature="0" />
    <path
       style="fill:none;fill-opacity:1;stroke:#000000;stroke-width:1;stroke-miterlimit:4;stroke-dasharray:none;stroke-opacity:1"
       d="m 97.428955,690.08545 37.477165,0 c 2.77,0 5,2.23 5,5 l 0,37.47717 c 0,2.77 -2.23,5 -5,5 l -37.477165,0 c -2.77,0 -5,-2.23 -5,-5 l 0,-37.47717 c 0,-2.77 2.23,-5 5,-5 z"
       id="rect7523-8"
       inkscape:connector-curvature="0" />
    <path
       style="fill:none;fill-opacity:1;stroke:#000000;stroke-width:1;stroke-miterlimit:4;stroke-dasharray:none;stroke-opacity:1"
       d="m 161.06857,693.11591 37.47717,0 c 2.77,0 5,2.23 5,5 l 0,37.47716 c 0,2.77 -2.23,5 -5,5 l -37.47717,0 c -2.77,0 -5,-2.23 -5,-5 l 0,-37.47716 c 0,-2.77 2.23,-5 5,-5 z"
       id="rect7523-3"
       inkscape:connector-curvature="0" />
    <path
       style="fill:none;fill-opacity:1;stroke:#000000;stroke-width:1;stroke-miterlimit:4;stroke-dasharray:none;stroke-opacity:1"
       d="m 19.647212,763.8266 37.477169,0 c 2.77,0 5,2.23 5,5 l 0,37.47717 c 0,2.77 -2.23,5 -5,5 l -37.477169,0 c -2.77,0 -5,-2.23 -5,-5 l 0,-37.47717 c 0,-2.77 2.23,-5 5,-5 z"
       id="rect7523-0"
       inkscape:connector-curvature="0" />
    <path
       style="fill:none;fill-opacity:1;stroke:#000000;stroke-width:1;stroke-miterlimit:4;stroke-dasharray:none;stroke-opacity:1"
       d="m 74.19545,753.72504 37.47717,0 c 2.77,0 5,2.23 5,5 l 0,37.47717 c 0,2.77 -2.23,5 -5,5 l -37.47717,0 c -2.77,0 -5,-2.23 -5,-5 l 0,-37.47717 c 0,-2.77 2.23,-5 5,-5 z"
       id="rect7523-85"
       inkscape:connector-curvature="0" />
    <path
       style="fill:none;fill-opacity:1;stroke:#000000;stroke-width:1;stroke-miterlimit:4;stroke-dasharray:none;stroke-opacity:1"
       d="m 147.93658,766.85706 37.47717,0 c 2.77,0 5,2.23 5,5 l 0,37.47716 c 0,2.77 -2.23,5 -5,5 l -37.47717,0 c -2.77,0 -5,-2.23 -5,-5 l 0,-37.47716 c 0,-2.77 2.23,-5 5,-5 z"
       id="rect7523-7"
       inkscape:connector-curvature="0" />
    <path
       id="path6736"
       d="m 96.712801,636.15863 c -1.50692,3.48128 -3.29061,6.68578 -5.35724,9.63195 -2.81701,4.01639 -5.12351,6.79649 -6.90105,8.34031 -2.7555,2.53408 -5.70783,3.83187 -8.86927,3.90568 -2.2696,0 -5.00665,-0.64582 -8.1927,-1.95592 -3.1965,-1.30394 -6.13406,-1.94976 -8.82006,-1.94976 -2.81701,0 -5.83822,0.64582 -9.06978,1.94976 -3.23648,1.3101 -5.84375,1.99282 -7.83719,2.06048 -3.03166,0.12916 -6.05349,-1.20553 -9.06978,-4.01024 -1.92516,-1.67913 -4.33315,-4.55765 -7.217811,-8.63554 -3.095019,-4.35468 -5.639549,-9.40438 -7.632979,-15.16141 -2.1349,-6.21833 -3.20512,-12.23984 -3.20512,-18.06944 0,-6.67779 1.44295,-12.43728 4.33315,-17.26371 2.27144,-3.87677 5.29327,-6.93488 9.07531,-9.17988 3.78205,-2.24499 7.86856,-3.38902 12.26936,-3.46221 2.40799,0 5.56575,0.74485 9.48988,2.20871 3.91305,1.46878 6.4256,2.21362 7.52719,2.21362 0.82357,0 3.61475,-0.87093 8.34646,-2.60727 4.47461,-1.61024 8.25113,-2.27698 11.34491,-2.01434 8.38337,0.67657 14.68166,3.98133 18.87027,9.93518 -7.49767,4.54289 -11.20653,10.90576 -11.13272,19.06831 0.0677,6.35795 2.37416,11.64876 6.9072,15.84967 2.05433,1.94976 4.34853,3.45668 6.90106,4.52689 -0.55356,1.60533 -1.13788,3.143 -1.75909,4.61916 z m -19.227,-75.65942 c 0,4.98334 -1.8206,9.63626 -5.4495,13.94296 -4.37928,5.11982 -9.67624,8.07829 -15.42035,7.61146 -0.0732,-0.59785 -0.11563,-1.22706 -0.11563,-1.88826 0,-4.78399 2.08262,-9.90381 5.78101,-14.08996 1.84644,-2.11952 4.19476,-3.88187 7.04252,-5.28773 2.84161,-1.38489 5.52946,-2.15077 8.05738,-2.2819 0.0738,0.66618 0.10457,1.33242 0.10457,1.99337 z"
       inkscape:connector-curvature="0"
       style="fill:none;stroke:url(#linearGradient6749)" />
    <path
       style="fill:none;fill-opacity:1;stroke:#000000;stroke-width:1;stroke-miterlimit:4;stroke-dasharray:none;stroke-opacity:1"
       d="m 142.4315,574.56 40.4061,0 0,40.4061 -40.4061,0 z"
       id="rect7483" />
    <path
       inkscape:connector-curvature="0"
       style="fill:none;fill-opacity:1;stroke:#000000;stroke-width:1;stroke-miterlimit:4;stroke-dasharray:none;stroke-opacity:1"
       d="m 208.09143,570.5194 40.4061,0 0,40.4061 -40.4061,0 z"
       id="rect7483-1" />
    <path
       inkscape:connector-curvature="0"
       style="fill:none;fill-opacity:1;stroke:#000000;stroke-width:1;stroke-miterlimit:4;stroke-dasharray:none;stroke-opacity:1"
       d="m 139.40105,624.05748 40.4061,0 0,40.4061 -40.4061,0 z"
       id="rect7483-3" />
    <path
       inkscape:connector-curvature="0"
       style="fill:none;fill-opacity:1;stroke:#000000;stroke-width:1;stroke-miterlimit:4;stroke-dasharray:none;stroke-opacity:1"
       d="m 189.90868,625.06763 40.4061,0 0,40.4061 -40.4061,0 z"
       id="rect7483-2" />
    <g
       transform="matrix(2.7691813,0,0,2.7691813,-138.67864,246.27276)"
       style="font-style:normal;font-weight:normal;font-size:40px;line-height:125%;font-family:sans-serif;letter-spacing:0px;word-spacing:0px;fill:none;fill-opacity:1;stroke:url(#linearGradient7606);stroke-width:1px;stroke-linecap:butt;stroke-linejoin:miter;stroke-opacity:1"
       id="flowRoot7581">
      <flowRoot
         xml:space="preserve"
         id="flowRoot7620"
         style="fill:black;stroke:none;stroke-opacity:1;stroke-width:1px;stroke-linejoin:miter;stroke-linecap:butt;fill-opacity:1;font-family:sans-serif;font-style:normal;font-weight:normal;font-size:70px;line-height:125%;letter-spacing:0px;word-spacing:0px;"><flowRegion
           id="flowRegion7622"><rect
             id="rect7624"
             width="443.45697"
             height="81.822357"
             x="14.142136"
             y="132.30447"
             style="font-size:70px;" /></flowRegion><flowPara
           id="flowPara7626"></flowPara></flowRoot>      <g
         transform="matrix(0.36111756,0,0,0.36111756,56.685008,108.89725)"
         style="font-style:normal;font-weight:normal;font-size:40px;line-height:125%;font-family:sans-serif;letter-spacing:0px;word-spacing:0px;fill:none;fill-opacity:1;stroke:url(#linearGradient7661);stroke-width:1px;stroke-linecap:butt;stroke-linejoin:miter;stroke-opacity:1"
         id="flowRoot7628" />
    </g>
  </g>
</svg>
