<?xml version="1.0" encoding="UTF-8" standalone="no"?>
<!-- Created with Inkscape (http://www.inkscape.org/) -->

<svg
   xmlns:dc="http://purl.org/dc/elements/1.1/"
   xmlns:cc="http://creativecommons.org/ns#"
   xmlns:rdf="http://www.w3.org/1999/02/22-rdf-syntax-ns#"
   xmlns:svg="http://www.w3.org/2000/svg"
   xmlns="http://www.w3.org/2000/svg"
   xmlns:sodipodi="http://sodipodi.sourceforge.net/DTD/sodipodi-0.dtd"
   xmlns:inkscape="http://www.inkscape.org/namespaces/inkscape"
   width="500"
   height="500"
   viewBox="0 0 500.00001 500.00001"
   id="svg4749"
   version="1.1"
   inkscape:version="0.91 r13725"
   sodipodi:docname="spiral.svg">
  <defs
     id="defs4751">
    <inkscape:path-effect
       effect="skeletal"
       id="path-effect5307"
       is_visible="true"
       pattern="m 0,557.36216 c 0,-2.76 2.24,-5 5,-5 2.76,0 5,2.24 5,5 0,2.76 -2.24,5 -5,5 -2.76,0 -5,-2.24 -5,-5 z"
       copytype="single_stretched"
       prop_scale="1"
       scale_y_rel="false"
       spacing="0"
       normal_offset="0"
       tang_offset="0"
       prop_units="false"
       vertical_pattern="false"
       fuse_tolerance="0" />
  </defs>
  <sodipodi:namedview
     id="base"
     pagecolor="#ffffff"
     bordercolor="#666666"
     borderopacity="1.0"
     inkscape:pageopacity="0.0"
     inkscape:pageshadow="2"
     inkscape:zoom="0.98994949"
     inkscape:cx="207.76861"
     inkscape:cy="257.23415"
     inkscape:document-units="px"
     inkscape:current-layer="layer1"
     showgrid="false"
     units="px"
     inkscape:window-width="1366"
     inkscape:window-height="745"
     inkscape:window-x="-8"
     inkscape:window-y="-8"
     inkscape:window-maximized="1" />
  <metadata
     id="metadata4754">
    <rdf:RDF>
      <cc:Work
         rdf:about="">
        <dc:format>image/svg+xml</dc:format>
        <dc:type
           rdf:resource="http://purl.org/dc/dcmitype/StillImage" />
        <dc:title></dc:title>
      </cc:Work>
    </rdf:RDF>
  </metadata>
  <g
     inkscape:label="Layer 1"
     inkscape:groupmode="layer"
     id="layer1"
     transform="translate(0,-552.36216)">
    <circle
       id="path5300"
       style="fill:#000000;stroke:none"
       cx="71.720833"
       cy="753.35699"
       r="1.5" />
    <path
       style="fill:none;fill-rule:evenodd;stroke:#000000;stroke-width:1.13323903px;stroke-linecap:butt;stroke-linejoin:miter;stroke-opacity:1"
       d="m 243.71702,814.4995 c 0.001,-8.5e-4 0.002,0.003 0.002,0.003 0.001,0.0149 -0.0212,0.0178 -0.0308,0.0156 -0.0496,-0.0113 -0.0527,-0.078 -0.0365,-0.11529 0.0487,-0.11253 0.20158,-0.1114 0.29265,-0.058 0.21076,0.12358 0.1987,0.41962 0.0733,0.59871 -0.24675,0.35235 -0.76,0.31921 -1.06926,0.0754 -0.54515,-0.42981 -0.4777,-1.25059 -0.0574,-1.74008 0.68432,-0.79705 1.91933,-0.6789 2.64697,-0.0126 1.11593,1.02192 0.92756,2.79411 -0.0662,3.82572 -1.45419,1.50965 -3.90284,1.22841 -5.3121,-0.18561 -1.98609,-1.9928 -1.58617,-5.27344 0.3527,-7.14191 2.64934,-2.55314 6.93382,-2.00559 9.35093,0.57431 3.21866,3.43545 2.49139,8.91192 -0.85735,11.97495 -4.36275,3.99052 -11.23564,3.04831 -15.04977,-1.20871 -4.87659,-5.44285 -3.68105,-13.93289 1.6353,-18.61115 6.68739,-5.88474 17.03161,-4.39437 22.6949,2.144 7.02285,8.10801 5.19299,20.5597 -2.74172,27.3368 -9.7163,8.29878 -24.54508,6.08165 -32.57264,-3.43535 -9.72039,-11.52392 -7.06504,-29.01568 4.2318,-38.43819 13.54248,-11.29557 33.99942,-8.14794 44.96926,5.13795 13.03217,15.78359 9.33505,39.52419 -6.16069,52.20162 -18.25893,14.93806 -45.61795,10.63109 -60.1711,-7.30696 -17.02112,-20.98006 -12.0408,-52.30858 8.58363,-68.91341 23.95865,-19.28923 59.62402,-13.56892 78.46441,9.99759 21.75022,27.20628 15.22016,67.59219 -11.55576,88.85982 -30.73463,24.412 -76.241,16.99927 -100.13549,-13.26499 -27.2824,-34.55531 -18.91095,-85.59837 15.13223,-112.32719 38.67993,-30.36931 95.69224,-20.95995 125.47069,17.16437 33.68061,43.12012 23.15099,106.55048 -19.36828,139.60177 -47.88751,37.22416 -118.20105,25.48881 -154.75625,-21.75086 -41.0078,-52.99373 -27.97812,-130.67186 24.31904,-170.96989 58.4504,-45.03947 143.99081,-30.62368 188.27849,27.07968 49.32696,64.26914 33.43017,158.18585 -30.03971,206.71783 -70.46159,53.87817 -173.28486,36.40236 -226.3237,-33.206 -58.700968,-77.03937 -39.544956,-189.31581 36.58547,-247.13191 84.0141,-63.80322 206.30656,-42.86269 269.17819,40.18501 69.19283,91.39742 46.36032,224.28507 -44.0115,292.49839 C 266.46212,1069.5522 122.3838,1044.7171 48.534793,946.60268 -32.330653,839.16641 -5.3792588,683.28569 100.90777,603.49909 217.02285,516.33486 385.33403,545.51945 471.36796,660.42085 567.67964,808.77578 377.65209,985.0664 377.65209,985.0664"
       id="path5302"
       inkscape:connector-curvature="0"
       sodipodi:nodetypes="cccccccscssssssssssssssssssssssssssssssscc" />
  </g>
</svg>
