<?xml version="1.0" encoding="UTF-8" standalone="no"?>
<!-- Created with Inkscape (http://www.inkscape.org/) -->

<svg
   xmlns:dc="http://purl.org/dc/elements/1.1/"
   xmlns:cc="http://creativecommons.org/ns#"
   xmlns:rdf="http://www.w3.org/1999/02/22-rdf-syntax-ns#"
   xmlns:svg="http://www.w3.org/2000/svg"
   xmlns="http://www.w3.org/2000/svg"
   xmlns:xlink="http://www.w3.org/1999/xlink"
   xmlns:sodipodi="http://sodipodi.sourceforge.net/DTD/sodipodi-0.dtd"
   xmlns:inkscape="http://www.inkscape.org/namespaces/inkscape"
   width="500"
   height="500"
   viewBox="0 0 500.00001 500.00001"
   id="svg6301"
   version="1.1"
   inkscape:version="0.91 r13725"
   sodipodi:docname="tineye-robot.svg">
  <defs
     id="defs6303">
    <inkscape:path-effect
       effect="powerstroke"
       id="path-effect6877"
       is_visible="true"
       offset_points="0,0.5"
       sort_points="true"
       interpolator_type="CubicBezierJohan"
       interpolator_beta="0.2"
       start_linecap_type="zerowidth"
       linejoin_type="round"
       miter_limit="4"
       end_linecap_type="zerowidth"
       cusp_linecap_type="round" />
  </defs>
  <sodipodi:namedview
     id="base"
     pagecolor="#ffffff"
     bordercolor="#666666"
     borderopacity="1.0"
     inkscape:pageopacity="0.0"
     inkscape:pageshadow="2"
     inkscape:zoom="0.9899495"
     inkscape:cx="181.30209"
     inkscape:cy="294.21734"
     inkscape:document-units="px"
     inkscape:current-layer="layer4"
     showgrid="false"
     units="px"
     inkscape:window-width="1366"
     inkscape:window-height="745"
     inkscape:window-x="-8"
     inkscape:window-y="-8"
     inkscape:window-maximized="1"
     showguides="true" />
  <metadata
     id="metadata6306">
    <rdf:RDF>
      <cc:Work
         rdf:about="">
        <dc:format>image/svg+xml</dc:format>
        <dc:type
           rdf:resource="http://purl.org/dc/dcmitype/StillImage" />
        <dc:title />
      </cc:Work>
    </rdf:RDF>
  </metadata>
  <g
     inkscape:label="Layer 1"
     inkscape:groupmode="layer"
     id="layer1"
     transform="translate(0,-552.36216)"
     style="display:inline">
    <image
       sodipodi:absref="C:\Users\BoxMaker\Desktop\robot-search-header.png"
       y="552.12848"
       x="48.149757"
       id="image6857"
       xlink:href="file:///C:/Users/BoxMaker/Desktop/robot-search-header.png"
       preserveAspectRatio="none"
       height="500.44171"
       width="408.5885"
       style="fill:none;stroke:#000000;stroke-opacity:1" />
  </g>
  <g
     inkscape:groupmode="layer"
     id="layer4"
     inkscape:label="Layer 2">
    <path
       style="fill:none;fill-rule:evenodd;stroke:#000000;stroke-width:1px;stroke-linecap:butt;stroke-linejoin:miter;stroke-opacity:1"
       d="m 169.64286,175 c -88.571431,3.21429 -83.928574,-36.07143 -83.928574,-36.07143 0,0 -10,-2.14286 -10,-12.85714 0,-10.71429 4.642857,-13.92857 4.642857,-13.92857 L 80,101.78571 73.928572,59.999999 c 0,0 -27.142858,-29.285714 1.785714,-28.571428 28.928574,0.714285 7.5,26.428571 7.5,26.428571 l 0.357143,28.571429 c 0,0 8.571428,-11.785715 14.642857,-16.428572 6.071424,-4.642857 23.214284,-13.571428 23.214284,-13.571428 0,0 7.85714,-20.714286 32.14286,-22.5 24.28571,-1.785715 50.35714,0.357143 50.35714,0.357143 l 6.07143,5 c 0,0 20.35714,2.857142 30.71429,10 10.35714,7.142857 19.64285,12.142857 19.64285,12.142857 l -4.28571,-30.714286 c 0,0 -11.78572,-4.285714 -11.42857,-13.214286 C 245,8.5714278 251.42857,0.71428492 257.5,0.71428492 c 6.07143,0 16.78571,4.28571428 16.42857,15.00000008 -0.35714,10.714286 -6.78571,12.857143 -6.78571,12.857143 l 3.92857,40.357143 c 0,0 15.71428,12.5 16.78571,29.285714 1.07143,16.785715 -1.07143,28.928575 -1.07143,28.928575 0,0 -73.92857,46.07143 -95.71428,46.78571 C 169.28571,174.64286 169.64286,175 169.64286,175 Z"
       id="path6879"
       inkscape:connector-curvature="0" />
    <path
       style="fill:none;fill-rule:evenodd;stroke:#000000;stroke-width:1px;stroke-linecap:butt;stroke-linejoin:miter;stroke-opacity:1"
       d="m 121.72338,183.82225 61.61931,-2.52538 c 0,0 29.29442,3.03046 97.98479,-33.33503 68.69038,-36.36549 83.33759,22.72843 83.33759,22.72843 0,0 -27.27412,15.65736 -20.70813,24.24366 6.56599,8.5863 23.73859,12.12183 23.73859,12.12183 0,0 34.34518,18.18275 52.02285,42.93148 17.67767,24.74874 26.26397,63.63962 26.26397,63.63962 0,0 9.09137,3.03045 10.10152,9.59644 1.01016,6.566 -4.54568,17.1726 -4.54568,17.1726 l -1.51523,-14.14214 c 0,0 1.01015,-4.54568 -6.06092,-4.04061 -7.07106,0.50508 -1.51522,18.18275 -1.51522,18.18275 0,0 -8.08123,-2.02031 -8.08123,-10.10153 0,-8.08122 4.04061,-13.63706 4.04061,-13.63706 0,0 -13.63705,-34.85026 -31.31472,-51.0127 -17.67767,-16.16244 -65.15484,-42.93148 -65.15484,-42.93148 0,0 5.05076,38.38579 -15.65737,64.64976 -20.70812,26.26397 -33.33503,26.76904 -33.33503,26.76904 0,0 -19.1929,-1.51523 -31.81981,-4.54568 -12.6269,-3.03046 -13.13198,-6.566 -13.13198,-6.566 0,0 -17.17259,0 -24.24366,3.03046 -7.07107,3.03046 -35.86042,22.72843 -55.55839,16.16244 -19.69798,-6.56599 -26.26397,-16.66752 -26.26397,-16.66752 l -23.73858,-58.08377 c 0,0 -13.63706,7.07107 -30.304579,29.29443 -16.667517,22.22335 -23.233508,41.92133 -23.233508,41.92133 0,0 4.04061,6.06091 1.515229,12.6269 -2.525382,6.566 -9.596449,6.566 -9.596449,6.566 0,0 11.616754,-9.09138 1.010152,-11.11168 -10.606602,-2.02031 -3.535534,11.61675 -3.535534,11.61675 0,0 -8.08122,-3.03045 -6.565991,-10.10152 1.515228,-7.07107 9.091373,-11.61676 9.091373,-11.61676 0,0 7.576144,-32.32488 15.657364,-44.95179 8.08122,-12.6269 30.304573,-44.95178 30.304573,-44.95178 0,0 -3.535531,-6.06092 -10.101522,-8.5863 -6.565992,-2.52538 -15.657365,-4.54569 -15.657365,-4.54569 0,0 -4.545686,-12.6269 8.586297,-20.20305 13.131983,-7.57614 36.36549,-9.59645 36.36549,-9.59645 z"
       id="path6881"
       inkscape:connector-curvature="0" />
    <path
       style="fill:none;fill-rule:evenodd;stroke:#000000;stroke-width:1px;stroke-linecap:butt;stroke-linejoin:miter;stroke-opacity:1"
       d="m 218.69803,467.17004 c 0,0 -25.75889,-31.31473 -23.73859,-66.67007 2.02031,-35.35533 11.61676,-42.4264 11.61676,-42.4264 0,0 22.22335,-18.18275 58.58884,-19.69798 36.36549,-1.51523 58.08377,26.26397 53.03301,20.20305 -5.05076,-6.06091 26.26397,36.87057 28.28427,60.60916 2.02031,23.73858 -7.07106,47.47717 -7.07106,47.47717 0,0 101.52033,4.04061 101.01525,14.14213 -0.50508,10.10153 -90.91373,11.61676 -105.56094,12.62691 -14.64721,1.01015 -85.86297,1.51523 -105.56094,1.01015 C 209.60665,493.93908 96.974644,491.91878 94.954339,481.81725 92.934034,471.71573 218.69803,467.17004 218.69803,467.17004 Z"
       id="path6883"
       inkscape:connector-curvature="0" />
    <path
       style="display:inline;fill:none;fill-rule:evenodd;stroke:#000000;stroke-width:1px;stroke-linecap:butt;stroke-linejoin:miter;stroke-opacity:1"
       d="m 351.29626,27.121565 c 0,0 24.24366,7.57614 25.75889,26.26397 1.51523,18.68782 -3.53553,26.5165 -13.13198,26.26396 -9.59645,-0.25254 -30.55711,-8.08122 -29.04189,-30.05204 1.51523,-21.97081 16.41498,-22.47589 16.41498,-22.47589 z"
       id="path6885"
       inkscape:connector-curvature="0" />
    <path
       style="display:inline;fill:none;fill-rule:evenodd;stroke:#000000;stroke-width:1px;stroke-linecap:butt;stroke-linejoin:miter;stroke-opacity:1"
       d="m 408.90639,19.291325 c 0,0 24.24366,7.57614 25.75889,26.26397 1.51523,18.68782 -3.53553,26.5165 -13.13198,26.26396 -9.59645,-0.25254 -30.55711,-8.08122 -29.04189,-30.05204 1.51523,-21.97081 16.41498,-22.47589 16.41498,-22.47589 z"
       id="path6885-2"
       inkscape:connector-curvature="0" />
  </g>
</svg>
