<svg width="499.99999999999994" height="499.99999999999994" xmlns="http://www.w3.org/2000/svg">
 <!-- Created with Method Draw - http://github.com/duopixel/Method-Draw/ -->
 <g>
  <title>background</title>
  <rect fill="#fff" id="canvas_background" height="502" width="502" y="-1" x="-1"/>
  <g display="none" overflow="visible" y="0" x="0" height="100%" width="100%" id="canvasGrid">
   <rect fill="url(#gridpattern)" stroke-width="0" y="0" x="0" height="100%" width="100%"/>
  </g>
 </g>
 <g>
  <title>Layer 1</title>
  <path stroke="#000" id="svg_8" d="m81.272623,276.499997c44.021862,0 65.047231,108.192501 2.628171,110.494477c-62.41906,2.301962 -46.650033,-110.494477 -2.628171,-110.494477z" fill-opacity="null" stroke-opacity="null" fill="none"/>
  <path stroke="#000" id="svg_7" d="m305.49337,86.5c37.456679,0 55.346436,78.826742 2.23622,80.503907c-53.110217,1.677165 -39.692899,-80.503907 -2.23622,-80.503907z" fill-opacity="null" stroke-opacity="null" fill="none"/>
  <path id="svg_3" d="m4.5,7.5c0,0 25,2 25,2c0,0 36,158 35.5,157.5c0.5,0.5 44.5,-157.5 44,-158c0.5,0.5 30.5,-1.5 30.5,-1.5c0,0 44,159 44,159c0,0 39,-159 38.5,-159.5c0.5,0.5 24.5,1.5 24,1c0.5,0.5 -51.5,187.5 -52,187c0.5,0.5 -25.5,1.5 -26,1c0.5,0.5 -41.5,-164.5 -41.5,-164.5c0,0 -48,164 -48.5,163.5c0.5,0.5 -24.5,2.5 -24.5,2.5c0,0 -49,-190 -49,-190z" fill-opacity="null" stroke-opacity="null" stroke-width="0" stroke="#000" fill="#000000"/>
  <path id="svg_4" d="m309.5,52.5c67,0 99,141 4,144c-95,3 -71,-144 -4,-144z" fill-opacity="null" stroke-opacity="null" stroke="#000" fill="none"/>
  <path id="svg_5" d="m429.5,194.5c0,0 -24,-1 -24.5,-1.5c0.5,0.5 2.5,-136.5 2,-137c0.5,0.5 18.5,1.5 18,1c0.5,0.5 1.5,20.5 1.5,20.5c0,0 -5,-10 23,-21c28,-11 29,11 29,11c0,0 -10,17 -10.5,16.5c0.5,0.5 -28.5,-6.5 -38.5,24.5c1,37 0,86 0,86z" fill-opacity="null" stroke-opacity="null" stroke-width="0" stroke="#000" fill="#000000"/>
  <path id="svg_6" fill-opacity="null" stroke-opacity="null" stroke-width="0" stroke="#000" fill="#000000"/>
  <path id="svg_9" d="m117.5,209.5l22.5,-2.5l-1,191c0.5,0.5 -17.5,0.5 -18.5,1.5c-1,1 -1,-15 -1.5,-15.5c0.5,0.5 -96.5,59.5 -97.5,-49.5c-1,-109 96,-58 95.5,-58.5c0.5,0.5 0.5,-32.5 0.5,-66.5z" fill-opacity="null" stroke-opacity="null" stroke="#000" fill="none"/>
  <path stroke="#000" id="svg_12" d="m221.5,260.95444c-57.90776,1.81777 -48,44 -48,44c0,0 19,26 45,35c26,9 42,10 41,18c-1,8 -3,28 -34,27c-31,-1 -33,-29 -33.5,-29.5c0.5,0.5 -22.5,4.5 -22.5,4.5c0,0 58,107 114,-1c-68,-49 -39,-40 -39.5,-40.5c0.5,0.5 -47.87344,-12.68335 -30.22554,-29.50224c17.64791,-16.8189 39.72554,15.00224 39.22554,14.50224c0.5,0.5 24.5,-2.5 24,-3c0.5,0.5 2.40776,-41.31777 -55.5,-39.5z" fill-opacity="null" stroke-opacity="null" stroke-width="null" fill="none"/>
 </g>
</svg>